<svg width="136" height="48" viewBox="0 0 136 48" fill="none" xmlns="http://www.w3.org/2000/svg">
<g clip-path="url(#clip0_2018_43)">
<path d="M64.6633 35.1937V32.9685H65.889H66.173V32.6881V14.783V14.5026H65.889H64.6633V12.2773H70.7269V14.5026H69.5018H69.2178V14.783V32.6881V32.9685H69.5018H70.7269V35.1937H64.6633ZM72.0011 33.6862L71.009 32.7032V32.6881H70.4965V15.7778H72.0011V12.9941L71.009 12.0115V11.9978H64.3828V12.0115V14.783V14.797L65.3749 15.7778H65.889V32.6881H64.3828V32.7032V35.4737V35.486L65.3749 36.4709H72.0011V33.6862Z" fill="white"/>
<path d="M65.1672 12.6252L65.0669 12.7251V12.8385L65.2837 12.6252H65.1672Z" fill="white"/>
<path d="M65.0664 13.2349L65.6827 12.6252H65.2837L65.0664 12.8385V13.2349Z" fill="white"/>
<path d="M66.2693 12.625L65.0664 13.8156V14.0557H65.3351L66.7848 12.625H66.2693Z" fill="white"/>
<path d="M67.3718 12.625L65.9243 14.0557H66.4371L67.8847 12.625H67.3718Z" fill="white"/>
<path d="M68.4726 12.625L66.5728 14.5039V15.0156L68.986 12.625H68.4726Z" fill="white"/>
<path d="M66.5728 15.5963V15.9301L69.9087 12.6252H69.573L66.5728 15.5963Z" fill="white"/>
<path d="M69.9087 12.625L66.5728 15.9303V16.1063L70.0886 12.625H69.9087Z" fill="white"/>
<path d="M68.821 14.4602L66.5728 16.6862V17.1954L68.821 14.9688V14.4602Z" fill="white"/>
<path d="M70.3273 12.9673L69.2271 14.0559H69.7425L70.3273 13.476V12.9673Z" fill="white"/>
<path d="M68.821 15.5507L66.5728 17.7777V18.288L68.821 16.0595V15.5507Z" fill="white"/>
<path d="M66.5728 18.869V18.985L68.821 16.7583V16.6408L66.5728 18.869Z" fill="white"/>
<path d="M68.821 16.7584L66.5728 18.985V19.3756L68.821 17.1512V16.7584Z" fill="white"/>
<path d="M66.5728 19.9597V20.0038L68.821 17.7751V17.73L66.5728 19.9597Z" fill="white"/>
<path d="M66.5728 20.4702L68.821 18.2395V17.7751L66.5728 20.0034V20.4702Z" fill="white"/>
<path d="M68.821 18.8245L66.5728 21.0505V21.5618L68.821 19.3343V18.8245Z" fill="white"/>
<path d="M68.821 19.9152L66.5728 22.1412V22.6525L68.821 20.4222V19.9152Z" fill="white"/>
<path d="M66.5728 23.233V23.5668L68.821 21.3404V21.0053L66.5728 23.233Z" fill="white"/>
<path d="M66.5728 23.7418L68.821 21.5132V21.3404L66.5728 23.5671V23.7418Z" fill="white"/>
<path d="M66.5728 24.5874L68.821 22.3582V22.0948L66.5728 24.3227V24.5874Z" fill="white"/>
<path d="M68.821 22.3581L66.5728 24.5873V24.8335L68.821 22.6043V22.3581Z" fill="white"/>
<path d="M68.821 23.1877L66.5728 25.4141V25.9229L68.821 23.6967V23.1877Z" fill="white"/>
<path d="M68.821 24.2777L66.5728 26.5066V27.0164L68.821 24.787V24.2777Z" fill="white"/>
<path d="M68.821 25.4137V25.3682L66.5728 27.5961V27.6409L68.821 25.4137Z" fill="white"/>
<path d="M68.821 25.4136L66.5728 27.6408V28.1042L68.821 25.8766V25.4136Z" fill="white"/>
<path d="M68.821 26.9412V26.4597L66.5728 28.6866V29.1697L68.821 26.9412Z" fill="white"/>
<path d="M68.821 26.9413L66.5728 29.1697V29.197L68.821 26.9695V26.9413Z" fill="white"/>
<path d="M68.821 27.5502L66.5728 29.7776V30.2859L68.821 28.0599V27.5502Z" fill="white"/>
<path d="M68.821 28.6411L66.5728 30.8703V31.3778L68.821 29.1491V28.6411Z" fill="white"/>
<path d="M68.821 29.9977V29.732L66.5728 31.9607V32.2246L68.821 29.9977Z" fill="white"/>
<path d="M66.5728 32.4692L68.821 30.2396V29.9975L66.5728 32.2247V32.4692Z" fill="white"/>
<path d="M65.2057 33.315L65.0664 33.4514V33.7172L65.3647 33.4196L65.4708 33.315H65.2057Z" fill="white"/>
<path d="M65.7189 33.315H65.471L65.3648 33.4202L65.0669 33.7172V33.9595L65.7189 33.315Z" fill="white"/>
<path d="M68.821 31.0142V30.8219L66.5728 33.0516V33.2434L68.821 31.0142Z" fill="white"/>
<path d="M68.821 31.3308V31.0143L66.5728 33.243V33.3153H66.499H66.3058L65.0669 34.5434V34.7448H65.3752L68.821 31.3308Z" fill="white"/>
<path d="M66.4732 34.745L68.821 32.4214V31.9149L65.9614 34.745H66.081H66.4732Z" fill="white"/>
<path d="M68.8208 33.315V33.0053L67.0615 34.7452H67.5756L69.0205 33.315H68.8208Z" fill="white"/>
<path d="M70.0993 33.315H69.6081L68.1626 34.7452H68.6508L70.0993 33.315Z" fill="white"/>
<path d="M70.0993 33.315L68.6509 34.7452H68.6777L70.1242 33.315H70.0993Z" fill="white"/>
<path d="M70.3271 34.1062V33.6928L69.2646 34.7452H69.6811L70.3271 34.1062Z" fill="white"/>
<path d="M70.3271 34.1062L69.6812 34.7452H69.7797L70.3271 34.2016V34.1062Z" fill="white"/>
<path d="M38.4739 33.3087H39.6973H39.9805V33.0283V15.1222V14.8411H39.6973H38.4739V12.6176H39.6973H43.1047L47.1732 24.9451L47.7253 26.6199V24.858V15.1222V14.8411H47.4433H46.2197V12.6176H52.2786V14.8411H51.0582H50.7737V15.1222V35.5312H47.6468L43.582 23.2062L43.0286 21.5316V23.2931V33.0283V33.3087H43.3124H44.5338V35.5312H38.4739V33.3087ZM52.0463 16.1048H53.5535V13.3197L52.5623 12.3377H45.9377V15.1222L46.9273 16.1048H47.4433V22.8333L44.3018 13.3197L43.3124 12.3377H39.6973H38.1924V15.1222L39.184 16.1048H39.6973V33.0283H38.1924V35.8121L39.184 36.7964H45.8098V34.0109L44.8183 33.0283H44.3018V26.2994L47.4433 35.8121L48.4339 36.7964H52.0463V16.1048Z" fill="white"/>
<path d="M38.8745 12.9637V13.2679L39.1821 12.9637H38.8745Z" fill="white"/>
<path d="M39.7704 12.9639L38.875 13.8516V14.1771V14.3604L40.2833 12.9639H39.7704Z" fill="white"/>
<path d="M39.4243 14.3961H39.6821L41.1266 12.9639H40.8692L39.4243 14.3961Z" fill="white"/>
<path d="M39.9384 14.3961L41.3834 12.9639H41.1261L39.6816 14.3961H39.9384Z" fill="white"/>
<path d="M41.9713 12.964L40.3813 14.5382V15.048L42.4848 12.964H41.9713Z" fill="white"/>
<path d="M40.3813 15.6295V16.1381L43.0072 13.5362L42.8806 13.1547L40.3813 15.6295Z" fill="white"/>
<path d="M40.3813 16.7208V16.7581L40.9661 16.1782L43.1606 14.0037L43.1507 13.9753L40.3813 16.7208Z" fill="white"/>
<path d="M40.3813 16.7583V17.2285L43.2776 14.3601L43.1606 14.0036L40.9661 16.1785L40.3813 16.7583Z" fill="white"/>
<path d="M40.3813 17.8125V18.2842L41.7346 16.9411L43.5404 15.1571L43.4209 14.7983L40.3813 17.8125Z" fill="white"/>
<path d="M43.5409 15.1574L41.7351 16.9414L40.3818 18.2844V18.3197L43.5488 15.1814L43.5409 15.1574Z" fill="white"/>
<path d="M46.6191 12.9637V13.2316L46.8908 12.9637H46.6191Z" fill="white"/>
<path d="M40.3813 18.9046V19.4116L43.8209 16.0031L43.694 15.6218L40.3813 18.9046Z" fill="white"/>
<path d="M43.9632 16.4423L40.3818 19.994V20.5035L44.0921 16.8263L43.9632 16.4423Z" fill="white"/>
<path d="M47.4756 12.9639L46.6191 13.811V14.3223L47.9901 12.9639H47.4756Z" fill="white"/>
<path d="M47.1328 14.3961H47.3901L48.8365 12.9639H48.5777L47.1328 14.3961Z" fill="white"/>
<path d="M48.8367 12.9639L47.3901 14.3961H47.6449L49.0939 12.9639H48.8367Z" fill="white"/>
<path d="M42.6291 19.1139V18.9954L42.6587 19.0856L43.2775 18.4698L44.3007 17.4576L44.2355 17.2652L40.3813 21.0851V21.3425L42.6291 19.1139Z" fill="white"/>
<path d="M42.7203 19.2729L44.3629 17.6474L44.301 17.4571L43.2783 18.47L42.6587 19.0856L42.7203 19.2729Z" fill="white"/>
<path d="M42.6291 19.3653V19.1139L40.3813 21.3426V21.5945L42.6291 19.3653Z" fill="white"/>
<path d="M42.8667 19.7124L42.9132 19.8513L43.7916 18.979L44.5517 18.2244L44.5067 18.0894L42.8667 19.7124Z" fill="white"/>
<path d="M48.1245 14.5018V14.6853L49.8638 12.9639H49.6786L48.1245 14.5018Z" fill="white"/>
<path d="M43.7927 18.979L42.9136 19.8538L42.9942 20.098L44.6342 18.4697L44.5526 18.2241L43.7927 18.979Z" fill="white"/>
<path d="M48.1245 15.0109L50.1936 12.9637H49.8644L48.1245 14.6852V15.0109Z" fill="white"/>
<path d="M42.6291 20.1317V19.9482L40.3813 22.1766V22.3596L42.6291 20.1317Z" fill="white"/>
<path d="M42.6291 20.4567V20.1317L40.3813 22.3596V22.6844L42.6291 20.4567Z" fill="white"/>
<path d="M44.7792 18.9091L43.1382 20.5361L43.2637 20.9192L44.9046 19.2937L44.7792 18.9091Z" fill="white"/>
<path d="M50.7794 12.964L48.125 15.5935V16.1011L51.2939 12.964H50.7794Z" fill="white"/>
<path d="M40.3813 23.7759L42.6289 21.5467V21.0386L40.3813 23.2686V23.7759Z" fill="white"/>
<path d="M50.3743 14.456L48.1245 16.6839V17.1932L50.3743 14.9648V14.456Z" fill="white"/>
<path d="M51.8795 12.9639L50.4341 14.3961H50.9486L51.8795 13.4724V12.9639Z" fill="white"/>
<path d="M43.536 21.7415L45.1771 20.1174L45.0502 19.7309L43.4087 21.3583L43.536 21.7415Z" fill="white"/>
<path d="M40.3813 24.8666L42.6289 22.6359V22.1293L40.3813 24.3583V24.8666Z" fill="white"/>
<path d="M51.5347 14.3965H51.8799V14.0525L51.5347 14.3965Z" fill="white"/>
<path d="M50.3743 15.548L48.1245 17.7749V18.2842L50.3743 16.054V15.548Z" fill="white"/>
<path d="M45.4411 20.9127L45.3205 20.5527L43.6772 22.1799L43.7985 22.5377L45.4411 20.9127Z" fill="white"/>
<path d="M42.6291 23.2211L40.3813 25.449V25.9249L42.6291 23.6957V23.2211Z" fill="white"/>
<path d="M45.4477 20.938L45.4409 20.913L43.7983 22.5379L43.8061 22.563L45.4477 20.938Z" fill="white"/>
<path d="M42.6291 23.7288V23.696L40.3813 25.9252V25.958L42.6291 23.7288Z" fill="white"/>
<path d="M48.1245 18.8661V19.2692L50.3743 17.0395V16.6379L48.1245 18.8661Z" fill="white"/>
<path d="M50.3743 17.0395L48.1245 19.2691V19.3759L50.3743 17.1477V17.0395Z" fill="white"/>
<path d="M45.6928 21.6794L45.5925 21.3752L43.9502 23.0025L44.0522 23.3049L45.6928 21.6794Z" fill="white"/>
<path d="M40.3813 26.9413L42.6289 24.7149V24.3112L40.3813 26.5392V26.9413Z" fill="white"/>
<path d="M42.6291 24.8188V24.7146L40.3813 26.9413V27.048L42.6291 24.8188Z" fill="white"/>
<path d="M45.7193 21.7587L45.6931 21.6791L44.0518 23.3073L44.0745 23.3872L45.7193 21.7587Z" fill="white"/>
<path d="M50.3743 17.7286L48.1245 19.9563V20.4658L50.3743 18.2368V17.7286Z" fill="white"/>
<path d="M40.3813 28.1385L42.6289 25.9104V25.4008L40.3813 27.6292V28.1385Z" fill="white"/>
<path d="M44.3495 24.2087L45.9916 22.5807L45.8632 22.1982L44.2217 23.8242L44.3495 24.2087Z" fill="white"/>
<path d="M50.3743 18.8182L48.1245 21.0479V21.5554L50.3743 19.3279V18.8182Z" fill="white"/>
<path d="M40.3813 29.23L42.6289 27.0018V26.4938L40.3813 28.7192V29.23Z" fill="white"/>
<path d="M44.621 25.03L46.261 23.4013L46.1332 23.0195L44.4937 24.6464L44.621 25.03Z" fill="white"/>
<path d="M48.1245 22.1389V22.3254L50.3743 20.0964V19.9097L48.1245 22.1389Z" fill="white"/>
<path d="M50.3743 20.0963L48.1245 22.3252V22.6475L50.3743 20.4182V20.0963Z" fill="white"/>
<path d="M46.4532 23.9824L46.4062 23.8435L44.7656 25.4685L44.8122 25.6074L46.4532 23.9824Z" fill="white"/>
<path d="M40.3813 29.9965L42.6289 27.7705V27.5833L40.3813 29.8107V29.9965Z" fill="white"/>
<path d="M46.5324 24.2261L46.4533 23.9824L44.812 25.6075L44.8918 25.8521L46.5324 24.2261Z" fill="white"/>
<path d="M42.6291 28.0923V27.7703L40.3813 29.9963V30.3187L42.6291 28.0923Z" fill="white"/>
<path d="M48.1245 23.3429L48.1607 23.3071L50.3743 21.1143V21.0021L48.1245 23.2285V23.3429Z" fill="white"/>
<path d="M48.1607 23.3071L48.1245 23.3429V23.7378L50.3741 21.5088V21.1155L48.1607 23.3071Z" fill="white"/>
<path d="M46.7052 24.7476L46.6784 24.6645L45.0371 26.2885L45.0627 26.3761L46.7052 24.7476Z" fill="white"/>
<path d="M40.3813 31.0153L42.6289 28.7886V28.6764L40.3813 30.9023V31.0153Z" fill="white"/>
<path d="M46.8046 25.048L46.7053 24.7476L45.0625 26.3761L45.1636 26.6746L46.8046 25.048Z" fill="white"/>
<path d="M42.6291 29.1824V28.7886L40.3813 31.015V31.4136L42.6291 29.1824Z" fill="white"/>
<path d="M50.3743 22.0917L48.1245 24.3202V24.83L50.3743 22.6015V22.0917Z" fill="white"/>
<path d="M40.3813 32.5018L42.6289 30.2754V29.7661L40.3813 31.9936V32.5018Z" fill="white"/>
<path d="M45.435 27.4958L47.076 25.8699L46.9456 25.4873L45.3086 27.1142L45.435 27.4958Z" fill="white"/>
<path d="M38.8745 33.6556V33.9946L39.2177 33.6556H38.8745Z" fill="white"/>
<path d="M50.3743 23.1827L48.1245 25.4114V25.9204L50.3743 23.692V23.1827Z" fill="white"/>
<path d="M38.875 35.088L40.3199 33.6558H39.8064L38.875 34.5788V35.088Z" fill="white"/>
<path d="M47.2192 26.3093L45.5767 27.9348L45.706 28.319L47.346 26.6914L47.2192 26.3093Z" fill="white"/>
<path d="M40.3813 33.5942L42.6289 31.3651V30.856L40.3813 33.0829V33.5942Z" fill="white"/>
<path d="M50.3743 24.2736L48.1245 26.5021V26.9071V27.0098L50.3743 24.7818V24.2736Z" fill="white"/>
<path d="M47.5909 27.4352L47.4907 27.1318L45.8511 28.7562L45.9499 29.0623L47.5909 27.4352Z" fill="white"/>
<path d="M42.6293 31.9467L39.4604 35.088H39.8703L42.6293 32.3528V31.9467Z" fill="white"/>
<path d="M42.6291 32.4572V32.3526L39.8701 35.0878H39.9762L42.6291 32.4572Z" fill="white"/>
<path d="M47.6194 27.5158L47.5908 27.4352L45.9497 29.0625L45.9768 29.1404L47.6194 27.5158Z" fill="white"/>
<path d="M40.8989 35.088L42.6296 33.3717V33.0394L40.563 35.088H40.8989Z" fill="white"/>
<path d="M48.1245 27.5918V27.9255L50.3743 25.6971V25.3626L48.1245 27.5918Z" fill="white"/>
<path d="M47.8446 28.2045L47.7617 27.9543L46.1201 29.5774L46.2015 29.8295L47.8446 28.2045Z" fill="white"/>
<path d="M48.1245 27.9258V28.1011L50.3743 25.8736V25.6971L48.1245 27.9258Z" fill="white"/>
<path d="M42.6291 33.5465V33.3717L40.8984 35.0879H41.0751L42.6291 33.5465Z" fill="white"/>
<path d="M47.8894 28.3374L47.845 28.2046L46.2017 29.8296L46.2469 29.9619L47.8894 28.3374Z" fill="white"/>
<path d="M42.176 35.088L43.6235 33.6558H43.1091L41.6631 35.088H42.176Z" fill="white"/>
<path d="M46.5194 30.7839L50.3746 26.9635V26.4555L48.1248 28.6825V29.0533L48.0336 28.7738L46.3926 30.3994L46.5194 30.7839Z" fill="white"/>
<path d="M43.2777 35.088L44.1356 34.2367V33.7282L42.7632 35.088H43.2777Z" fill="white"/>
<path d="M46.7909 31.6051L50.3742 28.0557V27.5474L46.6636 31.224L46.7909 31.6051Z" fill="white"/>
<path d="M50.3746 28.7517V28.6363L46.9351 32.0438L46.9609 32.132L50.3746 28.7517Z" fill="white"/>
<path d="M43.8643 35.0883H43.9818L44.1359 34.9333V34.8178L43.8643 35.0883Z" fill="white"/>
<path d="M50.3742 28.7518L46.9604 32.132L47.0611 32.429L50.3742 29.1461V28.7518Z" fill="white"/>
<path d="M43.9814 35.0883H44.1356V34.9333L43.9814 35.0883Z" fill="white"/>
<path d="M47.2154 32.8979L50.3744 29.7704V29.7284L47.207 32.8672L47.2154 32.8979Z" fill="white"/>
<path d="M50.3744 30.2383V29.7726L47.2153 32.8997L47.3324 33.25L50.3744 30.2383Z" fill="white"/>
<path d="M47.6034 34.073L50.3743 31.328V30.8177L47.4775 33.6909L47.6034 34.073Z" fill="white"/>
<path d="M50.3746 31.9086L47.7485 34.5126L47.8739 34.8934L50.3746 32.4179V31.9086Z" fill="white"/>
<path d="M50.3743 33.0001L48.2686 35.088H48.6064L50.3743 33.3343V33.0001Z" fill="white"/>
<path d="M50.3744 33.5089V33.3361L48.6064 35.0883H48.7839L50.3744 33.5089Z" fill="white"/>
<path d="M49.6358 35.088L50.3749 34.3527V34.0927L49.3696 35.088H49.6358Z" fill="white"/>
<path d="M50.3744 34.5995V34.3529L49.6353 35.0883H49.8842L50.3744 34.5995Z" fill="white"/>
<path d="M119.254 15.37V15.091H118.97H117.748V12.8649H123.806V15.091H122.584H122.301V15.37V35.7809H119.175L115.115 23.4567L114.56 21.7773V23.5413V33.275V33.5555H114.844H116.066V35.7809H110.008V33.5555H111.232H111.515V33.275V15.37V15.091H111.232H110.008V12.8649H111.232H114.641L118.701 25.1908L119.254 26.8702V25.1042V15.37ZM109.726 15.37V15.3838L110.715 16.3663H111.232V33.275H109.726V33.2908V36.0621V36.0744L110.715 37.0579H117.34V34.2729L116.349 33.2908V33.275H115.833V26.5627L118.97 36.0744L119.963 37.0579H123.577V16.3663H125.082V13.5812L124.092 12.5992V12.5854H117.466V12.5992V15.37V15.3838L118.456 16.3663H118.97V23.0961L115.833 13.5812L114.85 12.6064L114.844 12.5854H111.232H109.726V12.5992V15.37Z" fill="white"/>
<path d="M110.703 13.2115L110.408 13.505V14.0145L111.216 13.2115H110.703Z" fill="white"/>
<path d="M110.408 14.5959V14.6432H110.557L112.001 13.2115H111.804L110.408 14.5959Z" fill="white"/>
<path d="M110.874 14.6433L112.318 13.2116H112.001L110.557 14.6433H110.874Z" fill="white"/>
<path d="M111.461 14.6433H111.584L113.028 13.2116H112.907L111.461 14.6433Z" fill="white"/>
<path d="M113.421 13.2116H113.028L111.584 14.6433H111.916V14.7059L113.421 13.2116Z" fill="white"/>
<path d="M111.916 15.2858V15.7946L114.391 13.3397L114.35 13.2116H114.005L111.916 15.2858Z" fill="white"/>
<path d="M114.536 13.7788L111.916 16.3765V16.8862L114.663 14.1628L114.536 13.7788Z" fill="white"/>
<path d="M111.916 17.4669V17.8807L114.908 14.9127L114.806 14.6L111.916 17.4669Z" fill="white"/>
<path d="M114.908 14.9127L111.916 17.8808V17.9755L114.933 14.9843L114.908 14.9127Z" fill="white"/>
<path d="M111.916 18.5568V18.8998L115.163 15.6789L115.078 15.4225L111.916 18.5568Z" fill="white"/>
<path d="M111.916 19.0676L115.205 15.8051L115.163 15.6807L111.916 18.9024V19.0676Z" fill="white"/>
<path d="M115.35 16.2445L111.916 19.649V20.1603L115.475 16.6291L115.35 16.2445Z" fill="white"/>
<path d="M118.412 13.2115L118.148 13.471V13.9792L118.925 13.2115H118.412Z" fill="white"/>
<path d="M115.622 17.0668L111.916 20.7399V21.2489L115.748 17.4529L115.622 17.0668Z" fill="white"/>
<path d="M119.512 13.2116L118.148 14.5623V14.6433H118.58L120.026 13.2116H119.512Z" fill="white"/>
<path d="M114.162 19.7276V19.6034L111.916 21.8306V21.9545L114.162 19.7276Z" fill="white"/>
<path d="M114.252 19.5148L114.284 19.6086L115.923 17.9821L115.891 17.8888L114.252 19.5148Z" fill="white"/>
<path d="M119.167 14.6433H119.292L120.738 13.2116H120.612L119.167 14.6433Z" fill="white"/>
<path d="M119.654 14.6432V14.6705L121.126 13.2116H120.738L119.293 14.6432H119.654Z" fill="white"/>
<path d="M114.162 20.1122V19.7276L111.916 21.9545V22.3396L114.162 20.1122Z" fill="white"/>
<path d="M114.284 19.6087L114.378 19.8975L116.018 18.2729L115.924 17.9822L114.284 19.6087Z" fill="white"/>
<path d="M116.161 18.7128L114.521 20.3368L114.65 20.7209L116.288 19.095L116.161 18.7128Z" fill="white"/>
<path d="M111.916 23.431L114.162 21.2028V20.6933L111.916 22.9213V23.431Z" fill="white"/>
<path d="M121.715 13.2115L119.653 15.2519V15.7622L122.227 13.2115H121.715Z" fill="white"/>
<path d="M116.432 19.5349L114.793 21.1574L114.92 21.5435L116.56 19.9179L116.432 19.5349Z" fill="white"/>
<path d="M111.916 24.5236L114.162 22.2944V21.7849L111.916 24.0132V24.5236Z" fill="white"/>
<path d="M122.815 13.2116L119.654 16.3422V16.8524L123.33 13.2116H122.815Z" fill="white"/>
<path d="M115.064 21.9798L115.193 22.3644L116.83 20.7409L116.704 20.3558L115.064 21.9798Z" fill="white"/>
<path d="M121.903 15.2069L119.654 17.4328V17.9436L121.903 15.715V15.2069Z" fill="white"/>
<path d="M111.916 25.6134L114.162 23.3867V22.8777L111.916 25.1031V25.6134Z" fill="white"/>
<path d="M123.408 13.7134L122.469 14.6431H122.983L123.408 14.2237V13.7134Z" fill="white"/>
<path d="M117.061 21.4383L116.975 21.1788L115.337 22.8039L115.421 23.0608L117.061 21.4383Z" fill="white"/>
<path d="M119.654 18.5255V18.8676L121.903 16.6402V16.2963L119.654 18.5255Z" fill="white"/>
<path d="M114.162 24.3105V23.9669L111.916 26.1967V26.5387L114.162 24.3105Z" fill="white"/>
<path d="M121.903 16.6399L119.654 18.8673V19.0336L121.903 16.8048V16.6399Z" fill="white"/>
<path d="M114.162 24.3105L111.916 26.5387V26.7036L114.162 24.4769V24.3105Z" fill="white"/>
<path d="M117.101 21.5634L117.061 21.4382L115.421 23.0608L115.464 23.1854L117.101 21.5634Z" fill="white"/>
<path d="M117.314 22.2077L117.244 22.0007L115.607 23.6257L115.676 23.8292L117.314 22.2077Z" fill="white"/>
<path d="M119.654 19.616V19.8871L121.903 17.6592V17.3858L119.654 19.616Z" fill="white"/>
<path d="M114.162 25.3295V25.0573L111.916 27.2843V27.5577L114.162 25.3295Z" fill="white"/>
<path d="M119.654 20.1238L121.903 17.8953V17.6587L119.654 19.8875V20.1238Z" fill="white"/>
<path d="M117.374 22.385L117.314 22.2075L115.676 23.829L115.732 24.009L117.374 22.385Z" fill="white"/>
<path d="M114.162 25.3295L111.916 27.5577V27.796L114.162 25.5674V25.3295Z" fill="white"/>
<path d="M116.006 24.832L117.645 23.207L117.517 22.8229L115.877 24.4459L116.006 24.832Z" fill="white"/>
<path d="M121.903 18.4765L119.654 20.7082V21.2167L121.903 18.9861V18.4765Z" fill="white"/>
<path d="M114.162 26.1476L111.916 28.376V28.8853L114.162 26.6573V26.1476Z" fill="white"/>
<path d="M114.162 27.2378L111.916 29.4679V29.9755L114.162 27.7475V27.2378Z" fill="white"/>
<path d="M121.903 19.5687L119.654 21.7983V22.3074L121.903 20.079V19.5687Z" fill="white"/>
<path d="M116.276 25.6527L117.915 24.0292L117.787 23.6447L116.148 25.2701L116.276 25.6527Z" fill="white"/>
<path d="M114.162 28.384V28.3291L111.916 30.5586V30.6115L114.162 28.384Z" fill="white"/>
<path d="M119.654 22.8885V22.9424L121.903 20.7136V20.6601L119.654 22.8885Z" fill="white"/>
<path d="M118.073 24.508L118.059 24.469L116.419 26.092L116.432 26.1305L118.073 24.508Z" fill="white"/>
<path d="M118.185 24.8532L118.073 24.5081L116.432 26.1299L116.547 26.4757L118.185 24.8532Z" fill="white"/>
<path d="M121.903 20.7137L119.654 22.9422V23.3971L121.903 21.1689V20.7137Z" fill="white"/>
<path d="M114.162 28.3839L111.916 30.6114V31.0668L114.162 28.8381V28.3839Z" fill="white"/>
<path d="M114.162 29.9112V29.4191L111.916 31.6507V32.1399L114.162 29.9112Z" fill="white"/>
<path d="M118.452 25.6603L118.332 25.291L116.692 26.913L116.814 27.2843L118.452 25.6603Z" fill="white"/>
<path d="M119.654 23.979V24.4707L121.903 22.2435V21.7488L119.654 23.979Z" fill="white"/>
<path d="M121.903 22.2436L119.654 24.4705V24.4875L121.903 22.2598V22.2436Z" fill="white"/>
<path d="M114.162 29.9113L111.916 32.14V32.1578L114.162 29.9288V29.9113Z" fill="white"/>
<path d="M118.456 25.6748L118.452 25.6603L116.813 27.2838L116.817 27.2988L118.456 25.6748Z" fill="white"/>
<path d="M121.903 22.8414L119.654 25.0706V25.5781L121.903 23.3522V22.8414Z" fill="white"/>
<path d="M117.089 28.1207L118.727 26.4963L118.602 26.1112L116.962 27.7377L117.089 28.1207Z" fill="white"/>
<path d="M110.741 33.9032L110.408 34.232V34.7395L111.255 33.9032H110.741Z" fill="white"/>
<path d="M111.916 33.2498L114.162 31.0211V30.5121L111.916 32.7385V33.2498Z" fill="white"/>
<path d="M114.161 31.6025L111.915 33.8316V33.9033H111.842L110.408 35.3211V35.3335H110.91L114.161 32.1107V31.6025Z" fill="white"/>
<path d="M121.903 23.9324L119.654 26.1626V26.6696L121.903 24.4416V23.9324Z" fill="white"/>
<path d="M117.358 28.9421L118.999 27.3181L118.874 26.9336L117.234 28.5595L117.358 28.9421Z" fill="white"/>
<path d="M114.162 32.9677V32.6913L111.495 35.3336H111.773L114.162 32.9677Z" fill="white"/>
<path d="M119.654 27.252V27.5221L121.903 25.2961V25.0228L119.654 27.252Z" fill="white"/>
<path d="M119.21 27.9633L119.144 27.7592L117.504 29.3817L117.572 29.5873L119.21 27.9633Z" fill="white"/>
<path d="M121.903 25.2962L119.654 27.5221V27.7622L121.903 25.5336V25.2962Z" fill="white"/>
<path d="M119.269 28.1398L119.21 27.9632L117.572 29.5872L117.632 29.7648L119.269 28.1398Z" fill="white"/>
<path d="M112.011 35.3336L114.162 33.2004V32.9675L111.773 35.3336H112.011Z" fill="white"/>
<path d="M119.654 28.3429V28.5435L121.903 26.3153V26.1165L119.654 28.3429Z" fill="white"/>
<path d="M119.412 28.5791L117.776 30.2036L117.825 30.3558L119.465 28.7318L119.412 28.5791Z" fill="white"/>
<path d="M114.248 33.9032H114.161V33.7843L112.597 35.3339H112.799L114.248 33.9032Z" fill="white"/>
<path d="M119.543 28.9642L119.466 28.7318L117.825 30.3558L117.902 30.5886L119.543 28.9642Z" fill="white"/>
<path d="M121.903 26.3153L119.654 28.5433V28.8538L121.903 26.624V26.3153Z" fill="white"/>
<path d="M114.248 33.9032L112.799 35.3339H113.111L114.557 33.9032H114.248Z" fill="white"/>
<path d="M118.173 31.4097L121.903 27.714V27.2072L118.046 31.0265L118.173 31.4097Z" fill="white"/>
<path d="M115.144 33.9032L113.697 35.3339H114.211L115.657 33.9032H115.144Z" fill="white"/>
<path d="M115.667 34.4756L114.799 35.3334H115.313L115.667 34.9835V34.4756Z" fill="white"/>
<path d="M121.903 28.8054V28.2972L118.316 31.8488L118.444 32.2319L121.903 28.8054Z" fill="white"/>
<path d="M121.903 29.3873L118.589 32.6696L118.712 33.0419L121.903 29.8806V29.3873Z" fill="white"/>
<path d="M121.903 29.8808L118.711 33.0421L118.717 33.0538L121.903 29.8965V29.8808Z" fill="white"/>
<path d="M121.903 30.479L118.858 33.4941L118.964 33.8116L121.903 30.8979V30.479Z" fill="white"/>
<path d="M121.903 30.898L118.964 33.8118L118.988 33.8763L121.903 30.9895V30.898Z" fill="white"/>
<path d="M121.903 31.5696L119.132 34.3146L119.258 34.6997L121.903 32.0789V31.5696Z" fill="white"/>
<path d="M121.903 32.6598L119.402 35.1381L119.467 35.3334H119.715L121.903 33.1691V32.6598Z" fill="white"/>
<path d="M121.903 33.7497L120.305 35.3336H120.511L121.903 33.9528V33.7497Z" fill="white"/>
<path d="M121.903 33.953L120.511 35.3334H120.819L121.903 34.2597V33.953Z" fill="white"/>
<path d="M121.405 35.3336H121.538L121.903 34.9726V34.8409L121.405 35.3336Z" fill="white"/>
<path d="M121.539 35.3336H121.903V34.9726L121.539 35.3336Z" fill="white"/>
<mask id="mask0_2018_43" style="mask-type:luminance" maskUnits="userSpaceOnUse" x="3" y="4" width="130" height="40">
<path d="M3.2002 4H132.8V44H3.2002V4Z" fill="white"/>
</mask>
<g mask="url(#mask0_2018_43)">
<path d="M17.8216 32.9608V15.8694H19.3278V15.1689L20.0182 15.8694H20.5339L20.5382 31.3681V31.9855C20.5288 32.2038 20.5486 33.1316 18.6848 33.1316C18.3356 33.1316 18.0551 33.0987 17.8241 33.0406C17.8216 33.0106 17.8216 32.9829 17.8216 32.9608ZM11.9905 12.3675H18.0498V14.592H16.827H16.545V14.8712V31.9735C16.5776 32.9027 17.3377 33.4145 18.6848 33.4145C20.0512 33.4145 20.7891 32.9304 20.8191 32.0141V31.9955L20.8202 31.992V31.9855L20.8156 14.8712V14.592H20.5328H19.3115V12.3675H25.3704V14.592H24.147H23.8627V14.8712L23.868 31.9495C23.868 34.6533 22.3164 35.8077 18.6848 35.8077C15.0502 35.8077 13.4972 34.6533 13.4972 31.9495V14.8712V14.592H13.2141H11.9905V12.3675ZM25.1406 32.9458L25.1381 15.8694H26.645V13.0829L25.6539 12.1009V12.0861H19.029V12.1009V12.7875L18.3356 12.1009V12.0861H11.7085V12.1009V14.8712V14.8849L12.6986 15.8694H13.2141L13.2156 31.9655V31.992C13.2156 32.0926 13.2196 32.1896 13.2237 32.2875C13.227 32.3321 13.229 32.3786 13.231 32.4222C13.2364 32.4857 13.2429 32.5449 13.2482 32.6045C13.2581 32.7006 13.269 32.795 13.2848 32.8879C13.2874 32.9145 13.2932 32.9437 13.2973 32.9725C13.3114 33.0432 13.3238 33.1105 13.3377 33.1797C13.3377 33.1806 13.3406 33.1829 13.3406 33.1829C13.4537 33.7047 13.6532 34.1534 13.9406 34.5284L13.998 34.5915C14.115 34.7325 14.2428 34.8642 14.3851 34.9851L15.2592 35.875C16.1338 36.7001 17.5788 37.0841 19.6759 37.0841C23.4815 37.0841 25.1406 35.8174 25.1406 32.9458Z" fill="white"/>
<path d="M12.3916 13.4307L13.1171 12.7129H12.6038L12.3916 12.9224V13.4307Z" fill="white"/>
<path d="M13.7031 12.7126L12.3916 14.0141V14.1458H12.7732L14.2166 12.7126H13.7031Z" fill="white"/>
<path d="M14.8049 12.7126L13.3584 14.1458H13.8722L15.3189 12.7126H14.8049Z" fill="white"/>
<path d="M13.8955 15.0959L16.302 12.7126H15.9056L13.8955 14.7031V15.0959Z" fill="white"/>
<path d="M16.4195 12.7126H16.3019L13.8955 15.096V15.213L16.4195 12.7126Z" fill="white"/>
<path d="M13.8955 16.3029L17.5198 12.7129H17.0058L13.8955 15.7925V16.3029Z" fill="white"/>
<path d="M13.8955 17.3931L16.1443 15.1667V14.6554L13.8955 16.8843V17.3931Z" fill="white"/>
<path d="M17.1757 14.1458L17.6517 13.6735V13.1643L16.6616 14.1458H17.1757Z" fill="white"/>
<path d="M16.1443 15.7457L13.8955 17.9739V18.1517L16.1443 15.9233V15.7457Z" fill="white"/>
<path d="M19.7119 12.7238L19.7227 12.7121H19.7119V12.7238Z" fill="white"/>
<path d="M16.1443 16.2565V15.9232L13.8955 18.1516V18.4824L16.1443 16.2565Z" fill="white"/>
<path d="M19.7119 13.4114L20.4156 12.7123H20.3086L19.7119 13.3057V13.4114Z" fill="white"/>
<path d="M13.8955 19.1718L16.1443 16.941V16.8386L13.8955 19.0651V19.1718Z" fill="white"/>
<path d="M16.1443 17.3475V16.9413L13.8955 19.172V19.5739L16.1443 17.3475Z" fill="white"/>
<path d="M19.7119 13.4124V13.8156L20.8231 12.7124H20.4156L19.7119 13.4124Z" fill="white"/>
<path d="M20.4776 14.1458L21.9246 12.7126H21.4103L19.9658 14.1458H20.4776Z" fill="white"/>
<path d="M13.8955 20.6669L16.1443 18.4362V17.9279L13.8955 20.1556V20.6669Z" fill="white"/>
<path d="M13.8955 21.757L16.1443 19.5272V19.0193L13.8955 21.2476V21.757Z" fill="white"/>
<path d="M21.2151 14.1458V14.5051L23.0244 12.7126H22.5105L21.0649 14.1458H21.2151Z" fill="white"/>
<path d="M21.2153 15.4825L24.0125 12.7125H23.611L21.2153 15.0857V15.4825Z" fill="white"/>
<path d="M13.8955 22.7352L16.1443 20.507V20.1112L13.8955 22.3374V22.7352Z" fill="white"/>
<path d="M21.2153 15.4825L21.2169 15.5952L24.1255 12.7125H24.0125L21.2153 15.4825Z" fill="white"/>
<path d="M16.1443 20.6207V20.5068L13.8955 22.7355V22.8484L16.1443 20.6207Z" fill="white"/>
<path d="M13.8984 23.7533L16.1439 21.5264V21.2001L13.8984 23.4293V23.7533Z" fill="white"/>
<path d="M21.2168 16.5016L23.4643 14.2729V14.1458H23.5944L24.97 12.7819V12.7126H24.7127L21.2168 16.1762V16.5016Z" fill="white"/>
<path d="M16.1439 21.7094V21.5264L13.8984 23.7533V23.9386L16.1439 21.7094Z" fill="white"/>
<path d="M21.2168 16.5017V16.6842L23.4643 14.4603V14.273L21.2168 16.5017Z" fill="white"/>
<path d="M23.5947 14.1458H23.781L24.9704 12.9652V12.7817L23.5947 14.1458Z" fill="white"/>
<path d="M13.8984 25.03L16.1439 22.8014V22.2918L13.8984 24.5197V25.03Z" fill="white"/>
<path d="M24.8837 14.1458L24.9701 14.0558V13.5473L24.3672 14.1458H24.8837Z" fill="white"/>
<path d="M21.2168 17.7764L23.4643 15.5476V15.0401L21.2168 17.2681V17.7764Z" fill="white"/>
<path d="M13.8984 26.1191L16.1439 23.8909V23.3824L13.8984 25.6104V26.1191Z" fill="white"/>
<path d="M21.2168 18.8673L23.4643 16.6399V16.1301L21.2168 18.357V18.8673Z" fill="white"/>
<path d="M16.1439 24.4729L13.8984 26.7014V26.8087L16.1474 24.5811L16.1439 24.4729Z" fill="white"/>
<path d="M21.2168 19.5559L23.4643 17.3295V17.2218L21.2168 19.4482V19.5559Z" fill="white"/>
<path d="M16.1478 24.9825V24.5814L13.8979 26.8085V27.21L16.1478 24.9825Z" fill="white"/>
<path d="M21.2168 19.5558V19.9589L23.4643 17.7302V17.3294L21.2168 19.5558Z" fill="white"/>
<path d="M21.2168 20.5741L23.4643 18.3477V18.3126L21.2168 20.5403V20.5741Z" fill="white"/>
<path d="M13.8984 27.8265L16.1482 25.5993V25.5646L13.8984 27.7923V27.8265Z" fill="white"/>
<path d="M16.1478 26.0739V25.5997L13.8979 27.8266V28.3003L16.1478 26.0739Z" fill="white"/>
<path d="M21.2168 20.5741V21.0474L23.4676 18.8189L23.4643 18.3477L21.2168 20.5741Z" fill="white"/>
<path d="M21.2197 22.1395L23.4675 19.9129V19.4033L21.2188 21.6307L21.2197 22.1395Z" fill="white"/>
<path d="M13.8984 29.3912L16.1482 27.1635V26.655L13.8984 28.8815V29.3912Z" fill="white"/>
<path d="M21.2197 23.2302L23.4675 21.0026V20.4935L21.2197 22.7205V23.2302Z" fill="white"/>
<path d="M13.8984 30.481L16.1482 28.2537V27.7462L13.8984 29.9727V30.481Z" fill="white"/>
<path d="M13.8984 31.39L16.1482 29.1641V28.8368L13.8984 31.0655V31.39Z" fill="white"/>
<path d="M23.4673 21.9097V21.5835L21.2197 23.8111V24.1375L23.4673 21.9097Z" fill="white"/>
<path d="M16.1478 29.3464V29.1644L13.8979 31.3898V31.5724L16.1478 29.3464Z" fill="white"/>
<path d="M23.4673 22.0942V21.9097L21.2197 24.1371V24.3192L23.4673 22.0942Z" fill="white"/>
<path d="M16.1478 30.1817V29.9273L13.9038 32.1482C13.9063 32.2328 13.9111 32.3127 13.9172 32.3909L16.1478 30.1817Z" fill="white"/>
<path d="M23.4673 22.9276V22.6741L21.2197 24.9029V25.1555L23.4673 22.9276Z" fill="white"/>
<path d="M16.1481 30.4364V30.1815L13.9175 32.3911C13.9248 32.471 13.9303 32.5496 13.9407 32.624L16.1481 30.4364Z" fill="white"/>
<path d="M23.4673 23.1835V22.9296L21.2197 25.1555V25.4114L23.4673 23.1835Z" fill="white"/>
<path d="M14.1561 33.499L16.1481 31.5278V31.0165L14.0308 33.1154C14.0662 33.2499 14.1063 33.3773 14.1561 33.499Z" fill="white"/>
<path d="M21.2197 26.5021L23.4675 24.2734V23.7669L21.2197 25.9908V26.5021Z" fill="white"/>
<path d="M14.5714 34.1797L16.2586 32.5078C16.2036 32.3618 16.1768 32.2181 16.1602 32.0967L14.354 33.887C14.4178 33.9879 14.4885 34.0872 14.5714 34.1797Z" fill="white"/>
<path d="M21.2197 27.5919L23.4675 25.3642V24.8542L21.2197 27.0831V27.5919Z" fill="white"/>
<path d="M23.4673 25.9828V25.9477L21.2197 28.1743V28.2107L23.4673 25.9828Z" fill="white"/>
<path d="M16.474 32.9147C16.4667 32.908 16.4631 32.8999 16.4563 32.8926L14.8701 34.4639C14.8765 34.4699 14.883 34.4761 14.8919 34.4818L16.474 32.9147Z" fill="white"/>
<path d="M23.4673 26.4567V25.9855L21.2197 28.2104V28.6821L23.4673 26.4567Z" fill="white"/>
<path d="M16.6966 33.1638C16.6102 33.0842 16.5341 33.0001 16.474 32.9144L14.8921 34.4816C14.9775 34.5495 15.0752 34.6145 15.1731 34.6749L16.6966 33.1638Z" fill="white"/>
<path d="M23.4673 27.5096V27.0369L21.2197 29.2638V29.736L23.4673 27.5096Z" fill="white"/>
<path d="M15.9033 35.0049L17.3655 33.5562C17.2436 33.5132 17.1383 33.4623 17.0397 33.4065L15.5571 34.8737C15.6668 34.9212 15.779 34.9653 15.9033 35.0049Z" fill="white"/>
<path d="M17.3917 33.5669C17.3838 33.5644 17.3745 33.5596 17.3655 33.5561L15.9033 35.0046C15.9121 35.0084 15.9204 35.0124 15.9303 35.0139L17.3917 33.5669Z" fill="white"/>
<path d="M23.4673 27.5474V27.5092L21.2197 29.7364V29.7733L23.4673 27.5474Z" fill="white"/>
<path d="M16.816 35.2269L18.3107 33.7487C18.146 33.7347 17.9986 33.7141 17.8564 33.6876L16.3896 35.1423C16.5256 35.1751 16.6679 35.2019 16.816 35.2269Z" fill="white"/>
<path d="M21.2197 30.8645L23.469 28.6363V28.1288L21.2197 30.356V30.8645Z" fill="white"/>
<path d="M17.8095 35.3339L19.4564 33.7006C19.2871 33.7279 19.097 33.7457 18.8916 33.7519L17.3354 35.2953C17.4845 35.3129 17.645 35.3251 17.8095 35.3339Z" fill="white"/>
<path d="M21.2213 31.9356L21.2197 31.9562L23.4687 29.7274V29.2205L21.2197 31.4449L21.2213 31.9356Z" fill="white"/>
<path d="M18.6282 35.3617L23.4692 30.5641V30.3102L21.0193 32.7362C20.89 32.9763 20.6807 33.2187 20.3413 33.4089L18.373 35.3587C18.4579 35.3597 18.5418 35.3597 18.6282 35.3617Z" fill="white"/>
<path d="M23.4689 30.5641L18.6279 35.3617H18.6848C18.7537 35.3617 18.8185 35.3597 18.8863 35.3597L23.4689 30.8194V30.5641Z" fill="white"/>
<path d="M19.6921 35.3271L23.469 31.5848V31.3996L19.4922 35.3394C19.5597 35.3336 19.6249 35.3315 19.6921 35.3271Z" fill="white"/>
<path d="M23.4688 31.9094V31.8996V31.5847L19.6919 35.3271C19.8139 35.3194 19.937 35.3087 20.0525 35.2944L23.4688 31.9094Z" fill="white"/>
<path d="M21.4346 35.0172L23.3319 33.1318C23.3847 32.94 23.4163 32.7337 23.439 32.5189L20.7412 35.1925C20.9927 35.1439 21.2234 35.0868 21.4346 35.0172Z" fill="white"/>
<path d="M90.5796 36.0707C86.7957 36.0707 85.1829 34.9175 85.1829 32.2146V16.2217C85.1829 13.5187 86.7957 12.3675 90.5796 12.3675C94.3605 12.3675 95.9753 13.5187 95.9753 16.2217V32.2146C95.9753 34.9175 94.3605 36.0707 90.5796 36.0707ZM97.2535 33.2118V17.2208C97.2535 16.0172 96.9467 15.0945 96.3054 14.4304L95.5245 13.6793C94.6784 12.5886 93.0717 12.0861 90.5796 12.0861C86.6263 12.0861 84.9004 13.3532 84.9004 16.2217V32.2146C84.9004 32.3408 84.9065 32.4601 84.912 32.5792C84.9145 32.6159 84.9165 32.652 84.9175 32.6858C84.9272 32.7857 84.9363 32.8854 84.9469 32.9823C84.9535 33.0376 84.9631 33.0889 84.9691 33.1397C84.9772 33.1839 84.9847 33.2284 84.9944 33.2715C85.1152 33.9119 85.3512 34.4512 85.7283 34.8847L85.8667 35.0211C85.9027 35.056 85.9385 35.0902 85.9759 35.1245L87.2035 36.3184C88.1248 37.0195 89.5587 37.3478 91.5717 37.3478C95.5255 37.3478 97.2535 36.0815 97.2535 33.2118Z" fill="white"/>
<path d="M89.5076 33.2118V17.2205C89.5151 17.0009 89.6359 16.0354 91.5717 16.0354C92.0179 16.0354 92.3652 16.0887 92.6396 16.1681C92.6452 16.1949 92.6452 16.2184 92.6452 16.2355V32.2146C92.6371 32.4324 92.5163 33.3984 90.5796 33.3984C90.1333 33.3984 89.7866 33.3441 89.5106 33.2617C89.5096 33.2432 89.5076 33.2257 89.5076 33.2118ZM88.2324 32.2146V32.2221V32.2273C88.2461 32.5674 88.4573 33.6791 90.5796 33.6791C92.7048 33.6791 92.9156 32.5674 92.9271 32.2273V32.2221V32.2146L92.9297 16.2222V16.2154V16.2114C92.9156 15.8709 92.7048 14.7587 90.5796 14.7587C88.4573 14.7587 88.2461 15.8709 88.2324 16.2114V16.2154V16.2222V32.2146Z" fill="white"/>
<path d="M85.8452 14.6064L87.1886 13.2762C86.48 13.6127 86.0691 14.0751 85.8452 14.6064Z" fill="white"/>
<path d="M87.1884 13.2761L85.845 14.6061C85.7935 14.7289 85.7531 14.8546 85.7197 14.9805L87.6114 13.1063C87.4579 13.1577 87.3183 13.214 87.1884 13.2761Z" fill="white"/>
<path d="M89.0213 12.799C88.804 12.824 88.6004 12.8559 88.4078 12.8934L85.6023 15.6746C85.5876 15.8405 85.584 16.0054 85.584 16.1726V16.2035L89.0213 12.799Z" fill="white"/>
<path d="M90.2034 12.7153C90.0179 12.7226 89.837 12.7291 89.6658 12.7394L85.584 16.7838V17.2939L90.2034 12.7153Z" fill="white"/>
<path d="M88.8987 14.6363L90.839 12.7153C90.8228 12.7139 90.8066 12.7139 90.793 12.7139L88.8042 14.6829C88.835 14.6676 88.8663 14.6529 88.8987 14.6363Z" fill="white"/>
<path d="M85.584 17.8763V17.9199L87.9801 15.5447C87.9948 15.5169 88.0084 15.4871 88.0231 15.4581L85.584 17.8763Z" fill="white"/>
<path d="M90.8387 12.7152L88.8984 14.6362C89.0941 14.5414 89.3265 14.4612 89.602 14.4033L91.2915 12.728C91.145 12.7225 90.9953 12.7162 90.8387 12.7152Z" fill="white"/>
<path d="M87.8331 16.1566V16.1449C87.8376 16.0454 87.864 15.8116 87.9802 15.5449L85.584 17.9206V18.384L87.8331 16.1566Z" fill="white"/>
<path d="M90.2725 14.3218C90.371 14.3155 90.4742 14.311 90.5798 14.311C90.6445 14.311 90.7052 14.3134 90.7632 14.3155L92.279 12.8152C92.1409 12.7957 91.9934 12.7799 91.8427 12.7659L90.2725 14.3218Z" fill="white"/>
<path d="M87.8331 17.2208V16.7387L85.584 18.9667V19.45L87.8331 17.2208Z" fill="white"/>
<path d="M90.789 14.3158L92.3017 12.818C92.2951 12.818 92.2875 12.818 92.2789 12.815L90.7632 14.3158H90.789Z" fill="white"/>
<path d="M87.8331 17.2466V17.2208L85.584 19.4495V19.4762L87.8331 17.2466Z" fill="white"/>
<path d="M85.584 20.5684L87.8331 18.3367V17.8279L85.584 20.058V20.5684Z" fill="white"/>
<path d="M92.8029 12.9036L91.3286 14.3656C91.4842 14.3871 91.6248 14.4174 91.7552 14.4523L93.2178 13.0019C93.0909 12.9657 92.9489 12.9349 92.8029 12.9036Z" fill="white"/>
<path d="M85.584 21.6576L87.8331 19.4284V18.9194L85.584 21.1484V21.6576Z" fill="white"/>
<path d="M93.6621 13.1437L92.1909 14.6025C92.3122 14.6573 92.4218 14.7179 92.5224 14.783L94.0194 13.2984C93.9098 13.2436 93.7895 13.1922 93.6621 13.1437Z" fill="white"/>
<path d="M92.8438 15.0481C92.8867 15.0942 92.9276 15.1425 92.9655 15.1896L94.5494 13.6214C94.5 13.5841 94.4464 13.5456 94.3938 13.5113L92.8438 15.0481Z" fill="white"/>
<path d="M87.8331 20.2757V20.01L85.584 22.2384V22.5049L87.8331 20.2757Z" fill="white"/>
<path d="M93.0694 15.3344L94.6842 13.7329C94.6413 13.6943 94.5953 13.657 94.5498 13.6217L92.9658 15.1896C93.0032 15.238 93.0356 15.2855 93.0694 15.3344Z" fill="white"/>
<path d="M87.8331 20.5191V20.2754L85.584 22.5051V22.7476L87.8331 20.5191Z" fill="white"/>
<path d="M87.8331 21.1008L85.584 23.3292V23.5215L87.8331 21.2945V21.1008Z" fill="white"/>
<path d="M93.2938 15.8844L95.0537 14.139C95.0294 14.1014 95.0016 14.0666 94.9723 14.0286L93.2549 15.7322C93.2691 15.7865 93.2832 15.8389 93.2938 15.8844Z" fill="white"/>
<path d="M95.1791 14.3308C95.1417 14.2667 95.1018 14.2011 95.0533 14.139L93.2935 15.8845C93.3177 15.9984 93.3263 16.0918 93.3289 16.1451V16.1656L95.1791 14.3308Z" fill="white"/>
<path d="M87.8331 21.611V21.2945L85.584 23.5217V23.8405L87.8331 21.611Z" fill="white"/>
<path d="M85.584 24.9305L87.8331 22.7009V22.1919L85.584 24.4218V24.9305Z" fill="white"/>
<path d="M95.3643 14.7289L93.3291 16.7472V17.2557L95.4791 15.1253C95.4493 14.9898 95.4128 14.8581 95.3643 14.7289Z" fill="white"/>
<path d="M85.584 26.0216L87.8331 23.7919V23.2821L85.584 25.5108V26.0216Z" fill="white"/>
<path d="M95.5559 15.6311L93.3291 17.8387V18.3468L95.5796 16.1208C95.5751 15.9565 95.568 15.792 95.5559 15.6311Z" fill="white"/>
<path d="M87.8331 24.856V24.375L85.584 26.6036V27.0876L87.8331 24.856Z" fill="white"/>
<path d="M93.3291 18.9294V19.4138L95.5796 17.1836V16.7007L93.3291 18.9294Z" fill="white"/>
<path d="M95.5796 17.1839L93.3291 19.4141V19.4376L95.5796 17.21V17.1839Z" fill="white"/>
<path d="M87.8331 24.8843V24.8561L85.584 27.0872V27.1118L87.8331 24.8843Z" fill="white"/>
<path d="M93.3291 20.0203V20.4347L95.5796 18.2035V17.7911L93.3291 20.0203Z" fill="white"/>
<path d="M87.8331 25.8771V25.4647L85.584 27.6929V28.104L87.8331 25.8771Z" fill="white"/>
<path d="M93.3291 20.5295L95.5796 18.3009V18.203L93.3291 20.4347V20.5295Z" fill="white"/>
<path d="M87.8331 25.9745V25.877L85.584 28.1055V28.2021L87.8331 25.9745Z" fill="white"/>
<path d="M95.5796 18.8818L93.3291 21.1097V21.619L95.5796 19.3915V18.8818Z" fill="white"/>
<path d="M87.8331 26.5549L85.584 28.7856V29.2926L87.8331 27.0662V26.5549Z" fill="white"/>
<path d="M87.8331 27.6471L85.584 29.874V30.3853L87.8331 28.1551V27.6471Z" fill="white"/>
<path d="M93.3291 22.7102L95.5796 20.4838V19.973L93.3291 22.2034V22.7102Z" fill="white"/>
<path d="M87.8331 28.9323V28.7366L85.584 30.9665V31.1608L87.8331 28.9323Z" fill="white"/>
<path d="M95.5796 21.2574V21.0651L93.3291 23.2953V23.4866L95.5796 21.2574Z" fill="white"/>
<path d="M95.5796 21.5735V21.2575L93.3291 23.4861V23.8042L95.5796 21.5735Z" fill="white"/>
<path d="M87.8331 28.9323L85.584 31.1607V31.4752L87.8331 29.2487V28.9323Z" fill="white"/>
<path d="M85.584 32.1782L87.8331 29.9498V29.8296L85.584 32.0588V32.1655V32.1782Z" fill="white"/>
<path d="M95.5796 22.2781V22.1559L93.3291 24.3851V24.506L95.5796 22.2781Z" fill="white"/>
<path d="M95.5796 22.6644V22.2783L93.3291 24.5062V24.8928L95.5796 22.6644Z" fill="white"/>
<path d="M87.8331 29.9499L85.584 32.1785C85.584 32.3062 85.5876 32.4312 85.5957 32.5538L87.8331 30.338V29.9499Z" fill="white"/>
<path d="M93.3291 25.9871L95.5796 23.7564V23.2466L93.3291 25.4748V25.9871Z" fill="white"/>
<path d="M87.8331 30.9198L85.6543 33.0762C85.6801 33.2171 85.7124 33.3531 85.7539 33.4883L87.8331 31.4292V30.9198Z" fill="white"/>
<path d="M86.12 34.2177L87.8758 32.4777C87.8449 32.351 87.8373 32.2491 87.8333 32.1926V32.0089L85.9233 33.9012C85.982 34.0084 86.0452 34.1168 86.12 34.2177Z" fill="white"/>
<path d="M93.3291 27.0764L95.5796 24.8457V24.3364L93.3291 26.5651V27.0764Z" fill="white"/>
<path d="M95.5796 25.8405V25.4282L93.3291 27.6573V28.0697L95.5796 25.8405Z" fill="white"/>
<path d="M88.2008 33.1523C88.1346 33.0672 88.08 32.9836 88.0351 32.9005L86.394 34.5272C86.4613 34.5947 86.5365 34.6579 86.6184 34.7195L88.2008 33.1523Z" fill="white"/>
<path d="M95.5796 25.9357V25.8403L93.3291 28.0695V28.1669L95.5796 25.9357Z" fill="white"/>
<path d="M88.2006 33.1522L86.6182 34.7194C86.6364 34.7327 86.6546 34.748 86.6722 34.7603L88.241 33.2036C88.2278 33.1865 88.2132 33.1703 88.2006 33.1522Z" fill="white"/>
<path d="M88.7511 33.6223C88.6778 33.5793 88.607 33.5351 88.5444 33.4883L87.0347 34.9836C87.1075 35.0247 87.1828 35.0613 87.2641 35.0966L88.7511 33.6223Z" fill="white"/>
<path d="M95.5796 26.8594V26.5189L93.3291 28.748V29.088L95.5796 26.8594Z" fill="white"/>
<path d="M88.7511 33.6222L87.2642 35.0966C87.3031 35.115 87.3435 35.1314 87.3825 35.1464L88.8633 33.68C88.8238 33.6624 88.7875 33.6423 88.7511 33.6222Z" fill="white"/>
<path d="M95.5796 27.0284V26.8611L93.3291 29.0903V29.2576L95.5796 27.0284Z" fill="white"/>
<path d="M89.2786 33.8509L87.8179 35.2979C87.9463 35.3354 88.0813 35.3722 88.2243 35.4036L89.693 33.9513C89.5434 33.9253 89.4065 33.8905 89.2786 33.8509Z" fill="white"/>
<path d="M93.3291 30.3495L95.5796 28.1178V27.6083L93.3291 29.8387V30.3495Z" fill="white"/>
<path d="M93.3291 31.4397L95.5796 29.2085V28.6982L93.3291 30.9294V31.4397Z" fill="white"/>
<path d="M90.5798 34.0261C90.4539 34.0261 90.3337 34.0204 90.2164 34.0134L88.7173 35.496C88.8634 35.522 89.013 35.5415 89.1717 35.5563L90.7183 34.0204C90.6748 34.0246 90.6299 34.0261 90.5798 34.0261Z" fill="white"/>
<path d="M91.5136 33.9433C91.4656 33.9531 91.414 33.9598 91.3629 33.9679L89.7148 35.6021C89.7547 35.6041 89.7927 35.6063 89.8336 35.6063L91.5136 33.9433Z" fill="white"/>
<path d="M95.5796 29.9163V29.7911L93.3291 32.0203V32.1437L95.5796 29.9163Z" fill="white"/>
<path d="M95.5798 30.3006V29.9161L93.3292 32.144V32.1918C93.3262 32.2667 93.3105 32.4199 93.2549 32.6045L95.5798 30.3006Z" fill="white"/>
<path d="M91.5135 33.9433L89.8335 35.6063C89.9532 35.6134 90.0796 35.6181 90.209 35.6206L92.0537 33.7901C91.8945 33.8519 91.7141 33.9012 91.5135 33.9433Z" fill="white"/>
<path d="M95.5796 30.8818L90.793 35.6241C90.9754 35.6204 91.1538 35.6163 91.3226 35.6071L95.5796 31.3898V30.8818Z" fill="white"/>
<path d="M95.5797 32.1655V31.9712L91.958 35.5598C92.1677 35.5402 92.3649 35.5134 92.5518 35.4791L95.568 32.488C95.5752 32.3819 95.5797 32.2721 95.5797 32.1655Z" fill="white"/>
<path d="M95.4938 33.1453L93.314 35.3086C93.6496 35.2087 93.9386 35.0892 94.1862 34.9523L95.2299 33.9185C95.3543 33.6771 95.4402 33.4164 95.4938 33.1453Z" fill="white"/>
<path d="M52.6229 8.51285C52.3553 8.55396 52.0258 8.61606 51.5583 8.71595C51.0936 8.81378 50.6718 8.91502 50.4383 8.98215C50.3923 8.99436 50.3996 8.94302 50.4284 8.9283C50.5232 8.87948 50.645 8.85686 50.6899 8.81279C50.7205 8.78506 50.7205 8.67485 50.4451 7.46279C50.1681 6.24544 50.1177 6.14276 50.0797 6.13397C50.0165 6.11871 49.8929 6.14671 49.7848 6.14519C49.7485 6.14519 49.7181 6.09968 49.7676 6.09466C50.016 6.04978 50.3736 5.97772 50.8514 5.87406C51.3359 5.77192 51.6055 5.70829 51.8787 5.63873C51.9163 5.64798 52.0457 6.195 52.0846 6.27443C52.1033 6.30476 52.0356 6.31804 52.0272 6.29875C51.9163 6.12616 51.7953 5.96892 51.6778 5.92243C51.5583 5.87361 51.4155 5.85305 50.9963 5.94119C50.7567 5.99342 50.6634 6.02528 50.6225 6.06055C50.5957 6.08784 50.5884 6.16771 50.8037 7.14526C50.8178 7.2053 50.8358 7.24892 50.859 7.25547C50.9072 7.26319 50.9538 7.25691 51.2126 7.20162C51.4309 7.15253 51.5102 7.11699 51.5547 7.05668C51.6272 6.96774 51.6545 6.82432 51.6575 6.66977C51.6566 6.63602 51.7167 6.63351 51.7223 6.65397C51.7379 6.7684 51.7567 6.90365 51.8026 7.12273C51.8475 7.33858 51.8855 7.47751 51.9191 7.59041C51.9216 7.61097 51.8647 7.63125 51.8529 7.59948C51.7985 7.46279 51.7001 7.33176 51.6121 7.28419C51.5499 7.25143 51.4263 7.24793 51.2298 7.28868C50.9735 7.34405 50.9227 7.36012 50.888 7.38516C50.8694 7.40167 50.8712 7.4487 50.886 7.50928C51.1236 8.56374 51.1592 8.62827 51.1976 8.63958C51.2593 8.65681 51.4165 8.64353 51.65 8.59497C52.1276 8.49284 52.2393 8.42149 52.3409 8.30203C52.4185 8.21094 52.5102 7.93496 52.5375 7.7262C52.539 7.71337 52.6012 7.70063 52.5992 7.72764C52.5928 7.85131 52.651 8.49535 52.6229 8.51285Z" fill="white"/>
<path d="M54.8365 8.16552C54.6197 8.2033 54.3398 8.20608 54.0033 8.13518C53.9624 8.12746 53.8552 7.56806 53.8024 7.41486C53.7941 7.38605 53.8495 7.37627 53.8616 7.39009C54.1719 7.93989 54.4696 8.12298 54.8966 8.05064C55.2153 7.99526 55.4104 7.72907 55.352 7.37007C55.2246 6.57535 53.8163 6.88004 53.6648 6.06557C53.5793 5.59906 53.8775 5.19689 54.5017 5.0918C54.7423 5.05024 54.9298 5.05446 55.1491 5.10777C55.1946 5.11603 55.2618 5.53273 55.3007 5.69069C55.3101 5.72148 55.2572 5.72722 55.2509 5.71071C55.0601 5.35539 54.79 5.14861 54.4292 5.20766C54.1522 5.25478 53.9697 5.46811 54.0327 5.80862C54.158 6.51324 55.5684 6.19472 55.722 7.17173C55.7919 7.61069 55.4617 8.05934 54.8365 8.16552Z" fill="white"/>
<path d="M59.4003 5.25235C59.2342 4.89129 59.0733 4.67095 58.6204 4.72355C58.4293 4.74679 58.3389 4.7616 58.2171 4.78511C58.2215 4.93787 58.2658 5.35556 58.3579 6.09015C58.5107 7.32357 58.5464 7.42876 58.5815 7.44554C58.6411 7.47184 58.7792 7.44976 58.8873 7.46304C58.9226 7.46699 58.9194 7.51788 58.8982 7.51438C58.7792 7.51788 58.5643 7.53986 58.3389 7.56715C58.1158 7.59416 57.8803 7.63123 57.7648 7.65788C57.7436 7.6656 57.7292 7.6157 57.7622 7.60404C57.863 7.56544 58.0131 7.54965 58.062 7.51061C58.0956 7.48027 58.1029 7.37688 57.9404 6.14472C57.8457 5.40806 57.7845 4.99791 57.7509 4.84372C57.6428 4.85449 57.5553 4.85898 57.4191 4.87899C56.9938 4.93437 56.7919 5.19859 56.6961 5.5679C56.6872 5.59994 56.6226 5.60362 56.6226 5.58208C56.6264 5.38508 56.6624 4.9446 56.6481 4.80414C56.6438 4.77587 56.6961 4.76833 56.7095 4.77434C56.8373 4.83394 56.9829 4.83394 57.9894 4.70524C59.0477 4.57483 59.2211 4.5313 59.307 4.45035C59.3206 4.43608 59.3722 4.43437 59.3677 4.46516C59.3613 4.60642 59.4571 5.05651 59.4743 5.24938C59.4723 5.27092 59.4127 5.28169 59.4003 5.25235Z" fill="white"/>
<path d="M61.5149 4.84594C61.5075 4.83014 61.4902 4.83517 61.4879 4.84746C61.3504 5.27512 61.2617 5.59103 61.1553 5.95766C61.3363 5.94536 61.3642 5.94231 61.6852 5.91503C61.8067 5.90632 61.9298 5.89654 62.0158 5.88999C61.8606 5.55549 61.6681 5.15719 61.5149 4.84594ZM62.8641 7.12843C62.6363 7.14477 62.2533 7.17797 62.1406 7.19808C62.1153 7.20526 62.1085 7.155 62.1406 7.14477C62.241 7.11192 62.3827 7.10743 62.4354 7.07458C62.4888 7.04326 62.5214 6.99103 62.3089 6.51922C62.2276 6.34376 62.1494 6.17045 62.0625 5.97767C61.9677 5.98647 61.832 5.9949 61.6912 6.00846C61.3964 6.03251 61.2339 6.05153 61.1258 6.06482C60.9741 6.60888 60.8627 7.01499 60.872 7.0981C60.8794 7.17402 60.9264 7.20526 61.1639 7.22581C61.2023 7.22931 61.1988 7.28065 61.178 7.27921C61.0557 7.27535 61.0067 7.27535 60.779 7.29913C60.5569 7.31897 60.4612 7.33351 60.3474 7.35702C60.3272 7.3633 60.312 7.31098 60.3474 7.30371C60.5534 7.2539 60.6056 7.20328 60.6595 7.10994C60.7702 6.92892 61.078 5.84646 61.5558 4.21814C61.5652 4.1844 61.6768 4.18835 61.6852 4.20791C62.8345 6.691 62.9376 6.95486 63.0634 7.01005C63.1203 7.04003 63.2694 7.03904 63.3723 7.05753C63.4102 7.06309 63.4028 7.11335 63.3806 7.11192C63.2656 7.1051 63.0882 7.11335 62.8641 7.12843Z" fill="white"/>
<path d="M65.2646 4.15489C65.0996 4.16413 65.0572 4.17993 65.0198 4.2082C64.9861 4.23028 64.9644 4.28807 65.0073 5.32342C65.0094 5.35178 65.0137 5.37125 65.0453 5.37924C65.0973 5.38902 65.1094 5.38902 65.3169 5.38104C65.7387 5.36506 65.9544 5.07383 65.9461 4.74301C65.9332 4.35368 65.7357 4.13882 65.2646 4.15489ZM65.3209 5.48541C65.1264 5.49224 65.1006 5.49322 65.0504 5.50875C65.0208 5.51719 65.0167 5.53873 65.0182 5.56655C65.0602 6.58583 65.086 6.78839 65.1544 6.84332C65.229 6.89887 65.2982 6.91117 65.5663 6.90084C65.9851 6.88864 66.2014 6.62146 66.1926 6.22387C66.1822 5.78437 65.928 5.46343 65.3209 5.48541ZM65.5342 7.00648C65.4334 7.00953 65.2677 6.9993 65.0453 7.00953C64.8196 7.01931 64.4408 7.03933 64.32 7.05988C64.3016 7.06338 64.2912 7.01456 64.3263 7.00352C64.4304 6.97525 64.5489 6.97417 64.6033 6.93719C64.6369 6.91368 64.6528 6.80544 64.5959 5.56556C64.5391 4.31994 64.5111 4.2082 64.4759 4.1942C64.4178 4.1662 64.2912 4.17266 64.1793 4.1539C64.1447 4.14564 64.1519 4.09682 64.1732 4.10005C64.2952 4.10553 64.6548 4.09682 64.8899 4.08704C65.1248 4.07806 65.2212 4.05374 65.3417 4.04916C65.9416 4.02771 66.4015 4.25478 66.4134 4.70648C66.4202 5.04547 66.1227 5.27109 65.7051 5.37125C65.6879 5.37628 65.6879 5.40608 65.7107 5.40805C66.3426 5.47213 66.6479 5.77064 66.6557 6.14247C66.6646 6.68177 66.1771 6.98449 65.5342 7.00648Z" fill="white"/>
<path d="M70.0931 6.97644C69.8282 6.95741 69.5159 6.94817 69.0424 6.94368C68.5714 6.93991 68.1397 6.93991 67.8972 6.96414C67.8779 6.96414 67.8683 6.91685 67.9022 6.90832C68.0078 6.88355 68.1321 6.88355 68.1841 6.8533C68.219 6.83221 68.2423 6.72559 68.2398 5.47817C68.2398 4.23452 68.217 4.12431 68.1756 4.1086C68.1256 4.07351 67.9977 4.07827 67.888 4.05449C67.8537 4.04542 67.8628 3.99714 67.8849 4.0001C68.0013 4.01141 68.2084 4.01616 68.4389 4.01616C68.6835 4.01616 68.9013 4.00889 69.0075 4.00189C69.0353 4.00387 69.0398 4.04847 69.004 4.05673C68.9003 4.07926 68.7806 4.07495 68.7234 4.1086C68.6886 4.12961 68.6668 4.23596 68.6588 5.47916C68.6547 6.72559 68.6754 6.77495 68.7093 6.79649C68.7639 6.82629 68.9252 6.84774 69.1561 6.84828C69.5725 6.8533 69.7535 6.79946 69.8813 6.69804C69.9859 6.60937 70.1123 6.33142 70.18 6.13397C70.1866 6.12068 70.2502 6.12158 70.2396 6.14671C70.2058 6.26464 70.1209 6.96522 70.0931 6.97644Z" fill="white"/>
<path d="M71.9382 7.01979C71.7123 7.00956 71.4586 7.00552 71.3438 7.01207C71.3212 7.01531 71.3161 6.96792 71.3499 6.96047C71.4571 6.93812 71.6218 6.94844 71.679 6.91936C71.7123 6.8989 71.7386 6.7912 71.7906 5.55123C71.8467 4.30516 71.828 4.1927 71.7947 4.17395C71.7386 4.14307 71.5693 4.13634 71.4621 4.10888C71.4252 4.09856 71.4368 4.04821 71.4571 4.05368C71.5759 4.06921 71.8382 4.0903 72.0751 4.10008C72.3047 4.11031 72.5629 4.11381 72.6867 4.10888C72.7075 4.10556 72.7155 4.15492 72.6797 4.16219C72.5684 4.18041 72.3986 4.17296 72.341 4.1989C72.3006 4.21792 72.2713 4.32463 72.2117 5.56855C72.15 6.80996 72.1682 6.92044 72.2026 6.94144C72.2567 6.97725 72.4229 6.983 72.5275 7.01207C72.5598 7.02284 72.5482 7.07167 72.5295 7.06637C72.4123 7.0486 72.1621 7.03209 71.9382 7.01979Z" fill="white"/>
<path d="M74.6943 7.26993C74.476 7.25396 74.2071 7.18781 73.9009 7.03757C73.8615 7.019 73.9009 6.45044 73.8877 6.28844C73.8857 6.25963 73.9413 6.26439 73.9479 6.28216C74.1126 6.88985 74.3532 7.14025 74.7813 7.17498C75.1012 7.19903 75.3589 6.98947 75.3898 6.62643C75.4646 5.82695 74.0317 5.7766 74.0903 4.94966C74.1248 4.47461 74.5109 4.15942 75.1406 4.21075C75.3807 4.23005 75.5622 4.27887 75.7587 4.38397C75.7991 4.40452 75.7613 4.8249 75.7603 4.98789C75.7613 5.0202 75.7082 5.01374 75.7066 4.99615C75.6106 4.60439 75.4035 4.33568 75.0405 4.3049C74.7611 4.28435 74.5346 4.44536 74.5074 4.78963C74.4543 5.50421 75.8941 5.54029 75.7982 6.52681C75.7562 6.96793 75.3226 7.32127 74.6943 7.26993Z" fill="white"/>
<path d="M79.4053 7.70586C79.1855 7.67552 78.9878 7.65398 78.8706 7.6495C78.8484 7.653 78.8448 7.59969 78.8797 7.59771C78.9878 7.5864 79.096 7.60426 79.1536 7.57967C79.192 7.56388 79.229 7.44415 79.382 6.37201C79.3936 6.31152 79.3947 6.27463 79.3649 6.25363C79.3169 6.22384 79.2507 6.20678 78.6291 6.12592C78.0048 6.05008 77.9315 6.04703 77.877 6.0648C77.8456 6.07665 77.8365 6.11569 77.8284 6.17573C77.7061 7.25038 77.7138 7.37657 77.7415 7.40017C77.7921 7.43921 77.9038 7.44891 78.0048 7.48579C78.0367 7.49935 78.0231 7.54637 78.0018 7.54009C77.8866 7.51353 77.6885 7.48579 77.4676 7.45968C77.2453 7.43571 77.0369 7.41669 76.9233 7.41768C76.8975 7.41965 76.8975 7.36885 76.9354 7.36329C77.0369 7.35009 77.1603 7.36885 77.2179 7.3413C77.2513 7.32326 77.2907 7.21915 77.4317 5.98492C77.5727 4.74603 77.5601 4.63115 77.5292 4.6106C77.4726 4.57578 77.3488 4.56124 77.2473 4.52498C77.2073 4.51475 77.2219 4.46664 77.2483 4.47167C77.3655 4.49617 77.5773 4.52974 77.8072 4.55621C78.0367 4.58278 78.2439 4.59678 78.3657 4.60136C78.3879 4.59929 78.3899 4.65018 78.3556 4.65413C78.2439 4.66391 78.1312 4.65117 78.0721 4.67315C78.0316 4.685 77.9932 4.80589 77.8729 5.79816C77.8674 5.85425 77.8668 5.89688 77.8952 5.91707C77.9426 5.94885 78.0139 5.95872 78.6391 6.0368C79.2633 6.11668 79.3336 6.12341 79.3861 6.10644C79.42 6.09361 79.4271 6.05403 79.4351 5.99525C79.5705 5.00594 79.5656 4.8802 79.5332 4.8592C79.4811 4.82196 79.3649 4.80589 79.2633 4.76811C79.229 4.75581 79.2456 4.70654 79.2637 4.71525C79.3861 4.74083 79.5897 4.7778 79.8193 4.81065C80.0477 4.84296 80.263 4.86396 80.3828 4.86997C80.4075 4.86845 80.4096 4.91934 80.3712 4.92382C80.2605 4.93154 80.1357 4.91386 80.0765 4.93361C80.038 4.94536 79.9951 5.05252 79.8167 6.28747C79.6378 7.5181 79.6484 7.6285 79.6788 7.653C79.7288 7.69258 79.8505 7.70685 79.9466 7.74517C79.985 7.75917 79.9684 7.80826 79.9466 7.80027C79.8304 7.77102 79.6281 7.73763 79.4053 7.70586Z" fill="white"/>
<path d="M83.3384 8.3689C83.0745 8.30876 82.7475 8.24163 82.2796 8.15906C81.8155 8.0782 81.3885 8.01205 81.1484 7.98576C81.1014 7.98325 81.1262 7.93442 81.1616 7.93299C81.2657 7.92365 81.3855 7.94842 81.4461 7.92518C81.482 7.90992 81.5255 7.80824 81.7332 6.58137C81.9424 5.35423 81.9328 5.23783 81.903 5.2153C81.8514 5.17868 81.7251 5.15723 81.627 5.11559C81.5943 5.10132 81.5857 5.04953 81.6341 5.0603C81.8751 5.11415 82.234 5.18146 82.7126 5.26439C83.1958 5.35001 83.4692 5.39255 83.7502 5.43312C83.7791 5.45466 83.6936 6.00805 83.6952 6.09762C83.7012 6.13217 83.6325 6.11916 83.6325 6.09762C83.5977 5.89685 83.5435 5.70551 83.4536 5.61764C83.3636 5.52951 83.2388 5.45466 82.8208 5.3808C82.5798 5.33772 82.4822 5.33476 82.4312 5.35001C82.3963 5.36545 82.3604 5.44039 82.186 6.42341C82.1754 6.48372 82.1754 6.53057 82.1966 6.54637C82.234 6.56988 82.2796 6.58137 82.5398 6.62642C82.7591 6.66699 82.8441 6.65927 82.9082 6.62247C83.0114 6.56934 83.0907 6.4454 83.1529 6.30494C83.1625 6.27164 83.2206 6.29139 83.2165 6.31149C83.1867 6.42538 83.1539 6.5583 83.1105 6.7772C83.0725 6.99197 83.0518 7.13718 83.0372 7.25242C83.0351 7.27342 82.976 7.26992 82.976 7.23761C82.979 7.0889 82.9396 6.9304 82.8754 6.85456C82.8304 6.80116 82.7162 6.75117 82.5212 6.71707C82.2634 6.67148 82.2134 6.66753 82.1693 6.6783C82.1471 6.6853 82.1329 6.72963 82.1209 6.79093C81.9374 7.85661 81.949 7.92895 81.9763 7.95453C82.0289 7.99402 82.1789 8.0406 82.4115 8.0817C82.889 8.16786 83.019 8.14075 83.1569 8.07039C83.2641 8.01457 83.4526 7.79244 83.5597 7.61052C83.5678 7.59975 83.6279 7.61195 83.6163 7.63296C83.5627 7.74748 83.3676 8.36306 83.3384 8.3689Z" fill="white"/>
<path d="M86.4497 6.09435C86.2232 6.04356 86.0843 6.03808 86.0226 6.05433C85.9842 6.06788 85.9458 6.11895 85.6734 7.33675C85.4515 8.34912 85.4595 8.54917 85.5116 8.61998C85.5738 8.70138 85.6507 8.73818 86.0363 8.82559C86.7039 8.97781 87.2047 8.57421 87.4079 7.74564C87.6298 6.85327 87.2811 6.27942 86.4497 6.09435ZM85.9418 8.91067C85.8392 8.88689 85.5485 8.808 85.3261 8.75873C85.1068 8.70964 84.7323 8.63479 84.6125 8.62447C84.5922 8.62447 84.5922 8.57268 84.6317 8.57268C84.7373 8.56918 84.8572 8.59727 84.9178 8.57941C84.9557 8.56442 84.9976 8.46301 85.2614 7.24763C85.5258 6.02974 85.5273 5.91531 85.4955 5.8908C85.4469 5.85069 85.3221 5.82574 85.2261 5.77916C85.1867 5.76309 85.2064 5.71597 85.2276 5.72558C85.3469 5.76157 85.6997 5.84674 85.927 5.89377C86.1605 5.94412 86.4274 5.98145 86.5462 6.00873C87.7268 6.27592 88.0912 7.03905 87.8835 7.85334C87.6824 8.64906 86.854 9.11629 85.9418 8.91067Z" fill="white"/>
<path d="M89.643 8.58447C89.5035 8.58348 89.3979 8.49005 89.3994 8.36036C89.3994 8.1954 89.5096 8.09417 89.6627 8.09417C89.7996 8.09524 89.9079 8.19989 89.9058 8.3373C89.9043 8.47677 89.8103 8.58545 89.643 8.58447Z" fill="white"/>
<path d="M48.7215 8.24499C48.5823 8.24346 48.4741 8.14914 48.4751 8.01936C48.4776 7.85584 48.5858 7.75424 48.7438 7.75577C48.8776 7.75675 48.9848 7.85988 48.9848 7.99683C48.9808 8.13532 48.885 8.24598 48.7215 8.24499Z" fill="white"/>
<path d="M5.90055 26.2862H4.20717V24.7048H5.826C6.63288 24.7048 7.02455 24.993 7.02455 25.4873C7.02455 26.0148 6.59973 26.2862 5.90055 26.2862ZM4.20717 22.3151H5.67736C6.33315 22.3151 6.6981 22.5875 6.6981 23.0573C6.6981 23.5931 6.25861 23.8475 5.60236 23.8475H4.20717V22.3151ZM6.89013 24.1858C7.32328 23.9632 7.72173 23.6019 7.72173 22.8919C7.72173 21.9859 6.98161 21.4187 5.81006 21.4187H3.2002V27.1831H5.89267C7.18931 27.1831 8.04628 26.6318 8.04628 25.5949C8.04628 24.8042 7.57373 24.4166 6.89013 24.1858Z" fill="white"/>
<path d="M30.744 24.9344L31.7407 22.6273L32.7459 24.9344H30.744ZM31.2833 21.4162L28.7227 27.2234H29.7706L30.3707 25.8323H33.1199L33.7105 27.2234H34.7906L32.2314 21.4162H31.2833Z" fill="white"/>
<path d="M60.835 21.4187H59.5811L56.8128 24.3174V21.4187H55.79V27.1829H56.8128V25.5117L57.7185 24.5894L59.7052 27.1829H60.9426L58.4167 23.8981L60.835 21.4187Z" fill="white"/>
<path d="M76.1138 24.7281H79.0305V23.8224H76.1138V22.3242H79.405V21.4185H75.0908V27.1833H79.4465V26.2792H76.1138V24.7281Z" fill="white"/>
<path d="M102.178 24.2754V22.3386H103.666C104.421 22.3386 104.873 22.6697 104.873 23.3041C104.873 23.8985 104.407 24.2754 103.674 24.2754H102.178ZM105.91 23.2466C105.91 22.1175 105.087 21.4185 103.75 21.4185H101.156V27.1829H102.178V25.1737H103.458L104.887 27.1829H106.093L104.522 25.002C105.337 24.7799 105.91 24.2015 105.91 23.2466Z" fill="white"/>
<path d="M131.629 21.4187L129.984 23.9729L128.355 21.4187H127.148L129.459 24.9119V27.1829H130.49V24.8865L132.8 21.4187H131.629Z" fill="white"/>
<path d="M59.7753 42.3603C60.3782 42.2608 60.8356 42.1407 61.1482 42.0008C61.4631 41.8642 61.6208 41.6639 61.6246 41.3998C61.6054 41.1386 61.4449 40.9394 61.1401 40.7984C60.8336 40.6589 60.5007 40.588 60.1432 40.5841C59.632 40.6003 59.2019 40.7153 58.8536 40.9291C58.5032 41.1474 58.3215 41.3875 58.3091 41.6515C58.3112 41.7609 58.3506 41.8377 58.4226 41.8843C58.4923 41.9311 58.5714 41.9517 58.6573 41.9499C58.7718 41.9517 58.9141 41.9086 59.0791 41.8147C59.2459 41.7248 59.3396 41.5793 59.3565 41.3773C59.3421 41.2276 59.2618 41.1444 59.118 41.1253C59.3505 40.9033 59.6262 40.7984 59.9486 40.8033C60.3861 40.8249 60.6112 40.9896 60.6272 41.2977C60.635 41.4624 60.5682 41.6121 60.4356 41.7443C60.2968 41.8788 60.0533 41.9992 59.7048 42.1074C59.2666 42.2264 58.928 42.4122 58.6894 42.6633C58.4519 42.9151 58.3308 43.3208 58.3278 43.8801L58.4546 44C58.5777 43.7587 58.7455 43.636 58.9618 43.6335C59.195 43.6448 59.469 43.7049 59.7862 43.8093C60.1017 43.9124 60.4197 43.97 60.7358 43.9818C60.8993 43.9873 61.08 43.933 61.2766 43.8181C61.4732 43.7049 61.5826 43.4878 61.6006 43.1721C61.599 43.0596 61.5737 42.954 61.526 42.8593H61.4835C61.4401 43.0616 61.2998 43.1683 61.0641 43.1808C60.7194 43.1735 60.4389 43.1433 60.2223 43.0869C60.0065 43.0311 59.7536 42.9993 59.4622 42.989C59.2583 42.9945 59.0912 43.0371 58.9618 43.1109C58.8375 43.1823 58.7402 43.2591 58.675 43.3438L58.6573 43.3345C58.7154 43.0919 58.8286 42.8848 59.0036 42.7146C59.1816 42.5408 59.4379 42.4234 59.7753 42.3603Z" fill="white"/>
<path d="M66.3163 42.9659C66.3089 43.2806 66.2268 43.4972 66.0703 43.6192C65.9395 43.7263 65.7952 43.7761 65.6393 43.7628C65.4793 43.7761 65.3287 43.7263 65.1923 43.6192C65.0318 43.4972 64.9494 43.2806 64.9463 42.9659V41.6003C64.9494 41.2901 65.0318 41.0732 65.1923 40.9538C65.3287 40.8439 65.4793 40.7948 65.6393 40.8036C65.7952 40.7948 65.9395 40.8439 66.0703 40.9538C66.2268 41.0732 66.3089 41.2901 66.3163 41.6003V42.9659ZM65.6284 40.5835C65.1647 40.6025 64.7492 40.7896 64.3829 41.1446C64.0154 41.5044 63.8393 41.8845 63.8544 42.2858C63.8393 42.6859 64.0154 43.0681 64.3829 43.4258C64.7492 43.7817 65.1647 43.9664 65.6284 43.9812C66.0953 43.9664 66.5138 43.7817 66.8798 43.4258C67.2467 43.0681 67.4216 42.6859 67.4029 42.2858C67.4216 41.8845 67.2467 41.5044 66.8798 41.1446C66.5138 40.7896 66.0953 40.6025 65.6284 40.5835Z" fill="white"/>
<path d="M71.9466 43.5853C71.8373 43.4957 71.7798 43.3555 71.7732 43.1665V40.6133H69.9629V40.8359H70.3863C70.5198 40.8321 70.6259 40.8619 70.7003 40.925C70.7821 40.9983 70.818 41.1133 70.8089 41.2691V43.1665C70.8023 43.3555 70.7458 43.4957 70.6365 43.5853C70.5491 43.6798 70.4318 43.7293 70.2823 43.735H69.9629V43.9562H72.6198V43.735H72.3049C72.1502 43.7253 72.033 43.6765 71.9466 43.5853Z" fill="white"/>
<path d="M77.3593 43.5853C77.2481 43.4957 77.1915 43.3555 77.1854 43.1665V40.6133H75.3726V40.8359H75.7961C75.9315 40.8321 76.0371 40.8619 76.1114 40.925C76.1948 40.9983 76.2282 41.1133 76.2196 41.2691V43.1665C76.2146 43.3555 76.156 43.4957 76.0462 43.5853C75.9609 43.6798 75.8431 43.7293 75.6929 43.735H75.3726V43.9562H78.0295V43.735H77.7151C77.5629 43.7253 77.4432 43.6765 77.3593 43.5853Z" fill="white"/>
<path d="M79.9326 42.527L99.6358 42.2931L79.9326 42.0588V42.527Z" fill="white"/>
<path d="M55.6114 42.527L35.9072 42.2931L55.6114 42.0588V42.527Z" fill="white"/>
</g>
<path d="M17.8216 32.9608V15.8694H19.3278V15.1689L20.0182 15.8694H20.5339L20.5382 31.3681V31.9855C20.5288 32.2038 20.5486 33.1316 18.6848 33.1316C18.3356 33.1316 18.0551 33.0987 17.8241 33.0406C17.8216 33.0106 17.8216 32.9829 17.8216 32.9608ZM11.9905 12.3675H18.0498V14.592H16.827H16.545V14.8712V31.9735C16.5776 32.9027 17.3377 33.4145 18.6848 33.4145C20.0512 33.4145 20.7891 32.9304 20.8191 32.0141V31.9955L20.8202 31.992V31.9855L20.8156 14.8712V14.592H20.5328H19.3115V12.3675H25.3704V14.592H24.147H23.8627V14.8712L23.868 31.9495C23.868 34.6533 22.3164 35.8077 18.6848 35.8077C15.0502 35.8077 13.4972 34.6533 13.4972 31.9495V14.8712V14.592H13.2141H11.9905V12.3675ZM25.1406 32.9458L25.1381 15.8694H26.645V13.0829L25.6539 12.1009V12.0861H19.029V12.1009V12.7875L18.3356 12.1009V12.0861H11.7085V12.1009V14.8712V14.8849L12.6986 15.8694H13.2141L13.2156 31.9655V31.992C13.2156 32.0926 13.2196 32.1896 13.2237 32.2875C13.227 32.3321 13.229 32.3786 13.231 32.4222C13.2364 32.4857 13.2429 32.5449 13.2482 32.6045C13.2581 32.7006 13.269 32.795 13.2848 32.8879C13.2874 32.9145 13.2932 32.9437 13.2973 32.9725C13.3114 33.0432 13.3238 33.1105 13.3377 33.1797C13.3377 33.1806 13.3406 33.1829 13.3406 33.1829C13.4537 33.7047 13.6532 34.1534 13.9406 34.5284L13.998 34.5915C14.115 34.7325 14.2428 34.8642 14.3851 34.9851L15.2592 35.875C16.1338 36.7001 17.5788 37.0841 19.6759 37.0841C23.4815 37.0841 25.1406 35.8174 25.1406 32.9458Z" fill="white"/>
<path d="M12.3916 13.4307L13.1171 12.7129H12.6038L12.3916 12.9224V13.4307Z" fill="white"/>
<path d="M13.7031 12.7126L12.3916 14.0141V14.1458H12.7732L14.2166 12.7126H13.7031Z" fill="white"/>
<path d="M14.8049 12.7126L13.3584 14.1458H13.8722L15.3189 12.7126H14.8049Z" fill="white"/>
<path d="M13.8955 15.0959L16.302 12.7126H15.9056L13.8955 14.7031V15.0959Z" fill="white"/>
<path d="M16.4195 12.7126H16.3019L13.8955 15.096V15.213L16.4195 12.7126Z" fill="white"/>
<path d="M13.8955 16.3029L17.5198 12.7129H17.0058L13.8955 15.7925V16.3029Z" fill="white"/>
<path d="M13.8955 17.3931L16.1443 15.1667V14.6554L13.8955 16.8843V17.3931Z" fill="white"/>
<path d="M17.1757 14.1458L17.6517 13.6735V13.1643L16.6616 14.1458H17.1757Z" fill="white"/>
<path d="M16.1443 15.7457L13.8955 17.9739V18.1517L16.1443 15.9233V15.7457Z" fill="white"/>
<path d="M16.1443 16.2566V15.9234L13.8955 18.1517V18.4825L16.1443 16.2566Z" fill="white"/>
<path d="M19.7119 13.4114L20.4156 12.7123H20.3086L19.7119 13.3057V13.4114Z" fill="white"/>
<path d="M13.8955 19.1719L16.1443 16.9412V16.8388L13.8955 19.0653V19.1719Z" fill="white"/>
<path d="M16.1443 17.3475V16.9413L13.8955 19.172V19.5739L16.1443 17.3475Z" fill="white"/>
<path d="M19.7119 13.4124V13.8156L20.8231 12.7124H20.4156L19.7119 13.4124Z" fill="white"/>
<path d="M20.4776 14.1458L21.9246 12.7126H21.4103L19.9658 14.1458H20.4776Z" fill="white"/>
<path d="M13.8955 20.6669L16.1443 18.4362V17.9279L13.8955 20.1556V20.6669Z" fill="white"/>
<path d="M13.8955 21.7571L16.1443 19.5274V19.0194L13.8955 21.2478V21.7571Z" fill="white"/>
<path d="M21.2151 14.1458V14.5051L23.0244 12.7126H22.5105L21.0649 14.1458H21.2151Z" fill="white"/>
<path d="M21.2153 15.4827L24.0125 12.7127H23.611L21.2153 15.0858V15.4827Z" fill="white"/>
<path d="M13.8955 22.7354L16.1443 20.5072V20.1113L13.8955 22.3375V22.7354Z" fill="white"/>
<path d="M21.2153 15.4826L21.2169 15.5953L24.1255 12.7126H24.0125L21.2153 15.4826Z" fill="white"/>
<path d="M16.1443 20.6207V20.5068L13.8955 22.7355V22.8484L16.1443 20.6207Z" fill="white"/>
<path d="M13.8984 23.7533L16.1439 21.5264V21.2001L13.8984 23.4293V23.7533Z" fill="white"/>
<path d="M21.2168 16.5017L23.4643 14.2731V14.1459H23.5944L24.97 12.782V12.7127H24.7127L21.2168 16.1763V16.5017Z" fill="white"/>
<path d="M16.1439 21.7094V21.5264L13.8984 23.7533V23.9386L16.1439 21.7094Z" fill="white"/>
<path d="M21.2168 16.5017V16.6842L23.4643 14.4603V14.273L21.2168 16.5017Z" fill="white"/>
<path d="M13.8984 25.03L16.1439 22.8014V22.2918L13.8984 24.5197V25.03Z" fill="white"/>
<path d="M21.2168 17.7764L23.4643 15.5476V15.0401L21.2168 17.2681V17.7764Z" fill="white"/>
<path d="M13.8984 26.1193L16.1439 23.8911V23.3826L13.8984 25.6105V26.1193Z" fill="white"/>
<path d="M21.2168 18.8673L23.4643 16.6399V16.1301L21.2168 18.357V18.8673Z" fill="white"/>
<path d="M16.1439 24.473L13.8984 26.7015V26.8088L16.1474 24.5812L16.1439 24.473Z" fill="white"/>
<path d="M21.2168 19.5559L23.4643 17.3295V17.2218L21.2168 19.4482V19.5559Z" fill="white"/>
<path d="M16.1478 24.9825V24.5814L13.8979 26.8085V27.21L16.1478 24.9825Z" fill="white"/>
<path d="M21.2168 19.5559V19.959L23.4643 17.7303V17.3295L21.2168 19.5559Z" fill="white"/>
<path d="M21.2168 20.5742L23.4643 18.3478V18.3127L21.2168 20.5404V20.5742Z" fill="white"/>
<path d="M13.8984 27.8267L16.1482 25.5995V25.5647L13.8984 27.7924V27.8267Z" fill="white"/>
<path d="M16.1478 26.0739V25.5997L13.8979 27.8266V28.3003L16.1478 26.0739Z" fill="white"/>
<path d="M21.2168 20.5742V21.0475L23.4676 18.819L23.4643 18.3478L21.2168 20.5742Z" fill="white"/>
<path d="M21.2197 22.1396L23.4675 19.913V19.4034L21.2188 21.6309L21.2197 22.1396Z" fill="white"/>
<path d="M13.8984 29.3914L16.1482 27.1636V26.6551L13.8984 28.8816V29.3914Z" fill="white"/>
<path d="M21.2197 23.2302L23.4675 21.0026V20.4935L21.2197 22.7205V23.2302Z" fill="white"/>
<path d="M13.8984 30.481L16.1482 28.2537V27.7462L13.8984 29.9727V30.481Z" fill="white"/>
<path d="M13.8984 31.3901L16.1482 29.1642V28.837L13.8984 31.0656V31.3901Z" fill="white"/>
<path d="M23.4673 21.9097V21.5835L21.2197 23.8111V24.1375L23.4673 21.9097Z" fill="white"/>
<path d="M16.1478 29.3466V29.1645L13.8979 31.39V31.5725L16.1478 29.3466Z" fill="white"/>
<path d="M23.4673 22.0944V21.9098L21.2197 24.1372V24.3193L23.4673 22.0944Z" fill="white"/>
<path d="M16.1478 30.1818V29.9274L13.9038 32.1483C13.9063 32.2329 13.9111 32.3128 13.9172 32.391L16.1478 30.1818Z" fill="white"/>
<path d="M23.4673 22.9276V22.6741L21.2197 24.9029V25.1555L23.4673 22.9276Z" fill="white"/>
<path d="M16.1481 30.4364V30.1815L13.9175 32.3911C13.9248 32.471 13.9303 32.5496 13.9407 32.624L16.1481 30.4364Z" fill="white"/>
<path d="M23.4673 23.1835V22.9296L21.2197 25.1555V25.4114L23.4673 23.1835Z" fill="white"/>
<path d="M14.1561 33.4991L16.1481 31.5279V31.0166L14.0308 33.1156C14.0662 33.25 14.1063 33.3774 14.1561 33.4991Z" fill="white"/>
<path d="M21.2197 26.5021L23.4675 24.2734V23.7669L21.2197 25.9908V26.5021Z" fill="white"/>
<path d="M14.5714 34.1797L16.2586 32.5078C16.2036 32.3618 16.1768 32.2181 16.1602 32.0967L14.354 33.887C14.4178 33.9879 14.4885 34.0872 14.5714 34.1797Z" fill="white"/>
<path d="M21.2197 27.592L23.4675 25.3643V24.8543L21.2197 27.0833V27.592Z" fill="white"/>
<path d="M23.4673 25.9828V25.9477L21.2197 28.1743V28.2107L23.4673 25.9828Z" fill="white"/>
<path d="M16.474 32.9147C16.4667 32.908 16.4631 32.8999 16.4563 32.8926L14.8701 34.4639C14.8765 34.4699 14.883 34.4761 14.8919 34.4818L16.474 32.9147Z" fill="white"/>
<path d="M23.4673 26.4567V25.9855L21.2197 28.2104V28.6821L23.4673 26.4567Z" fill="white"/>
<path d="M16.6966 33.1638C16.6102 33.0842 16.5341 33.0001 16.474 32.9144L14.8921 34.4816C14.9775 34.5495 15.0752 34.6145 15.1731 34.6749L16.6966 33.1638Z" fill="white"/>
<path d="M23.4673 27.5097V27.037L21.2197 29.2639V29.7361L23.4673 27.5097Z" fill="white"/>
<path d="M15.9033 35.0049L17.3655 33.5562C17.2436 33.5132 17.1383 33.4623 17.0397 33.4065L15.5571 34.8737C15.6668 34.9212 15.779 34.9653 15.9033 35.0049Z" fill="white"/>
<path d="M17.3917 33.5669C17.3838 33.5644 17.3745 33.5596 17.3655 33.5561L15.9033 35.0046C15.9121 35.0084 15.9204 35.0124 15.9303 35.0139L17.3917 33.5669Z" fill="white"/>
<path d="M23.4673 27.5475V27.5093L21.2197 29.7366V29.7734L23.4673 27.5475Z" fill="white"/>
<path d="M16.816 35.2271L18.3107 33.7488C18.146 33.7348 17.9986 33.7142 17.8564 33.6877L16.3896 35.1424C16.5256 35.1753 16.6679 35.202 16.816 35.2271Z" fill="white"/>
<path d="M21.2197 30.8645L23.469 28.6363V28.1288L21.2197 30.356V30.8645Z" fill="white"/>
<path d="M17.8095 35.334L19.4564 33.7007C19.2871 33.728 19.097 33.7458 18.8916 33.7521L17.3354 35.2954C17.4845 35.313 17.645 35.3252 17.8095 35.334Z" fill="white"/>
<path d="M21.2213 31.9357L21.2197 31.9563L23.4687 29.7276V29.2206L21.2197 31.445L21.2213 31.9357Z" fill="white"/>
<path d="M18.6282 35.3617L23.4692 30.5641V30.3102L21.0193 32.7362C20.89 32.9763 20.6807 33.2187 20.3413 33.4089L18.373 35.3587C18.4579 35.3597 18.5418 35.3597 18.6282 35.3617Z" fill="white"/>
<path d="M23.4689 30.5641L18.6279 35.3617H18.6848C18.7537 35.3617 18.8185 35.3597 18.8863 35.3597L23.4689 30.8194V30.5641Z" fill="white"/>
<path d="M19.6921 35.3272L23.469 31.5849V31.3997L19.4922 35.3395C19.5597 35.3337 19.6249 35.3317 19.6921 35.3272Z" fill="white"/>
<path d="M23.4688 31.9094V31.8996V31.5847L19.6919 35.3271C19.8139 35.3194 19.937 35.3087 20.0525 35.2944L23.4688 31.9094Z" fill="white"/>
<path d="M21.4346 35.0172L23.3319 33.1318C23.3847 32.94 23.4163 32.7337 23.439 32.5189L20.7412 35.1925C20.9927 35.1439 21.2234 35.0868 21.4346 35.0172Z" fill="white"/>
</g>
<defs>
<clipPath id="clip0_2018_43">
<rect width="129.6" height="40" fill="white" transform="translate(3.2002 4)"/>
</clipPath>
</defs>
</svg>
