<svg width="162" height="32" viewBox="0 0 162 32" fill="none" xmlns="http://www.w3.org/2000/svg">
<g clip-path="url(#clip0_2023_45)">
<path d="M76.8287 28.9921V26.2106H78.3607H78.7158V25.8601V3.47874V3.12816H78.3607H76.8287V0.346505H84.4081V3.12816H82.8768H82.5217V3.47874V25.8601V26.2106H82.8768H84.4081V28.9921H76.8287ZM86.0009 27.1077L84.7607 25.8789V25.8601H84.1201V4.72221H86.0009V1.24253L84.7607 0.0143217V-0.00284446H76.478V0.0143217V3.47874V3.49624L77.7182 4.72221H78.3607V25.8601H76.478V25.8789V29.342V29.3574L77.7182 30.5886H86.0009V27.1077Z" fill="#3F4B00"/>
<path d="M77.4588 0.781551L77.3335 0.906415V1.04822L77.6044 0.781551H77.4588Z" fill="#3F4B00"/>
<path d="M77.333 1.54358L78.1034 0.781499H77.6046L77.333 1.04817V1.54358Z" fill="#3F4B00"/>
<path d="M78.8366 0.781222L77.333 2.26948V2.56958H77.6688L79.481 0.781222H78.8366Z" fill="#3F4B00"/>
<path d="M80.2146 0.781222L78.4053 2.56958H79.0462L80.8558 0.781222H80.2146Z" fill="#3F4B00"/>
<path d="M81.5906 0.78123L79.2158 3.12985V3.76953L82.2323 0.78123H81.5906Z" fill="#3F4B00"/>
<path d="M79.2158 4.49538V4.9126L83.3858 0.781569H82.9661L79.2158 4.49538Z" fill="#3F4B00"/>
<path d="M83.3858 0.781235L79.2158 4.91294V5.13293L83.6106 0.781235H83.3858Z" fill="#3F4B00"/>
<path d="M82.0262 3.0754L79.2158 5.85784V6.49438L82.0262 3.71105V3.0754Z" fill="#3F4B00"/>
<path d="M83.9085 1.20901L82.5332 2.56982H83.1776L83.9085 1.84488V1.20901Z" fill="#3F4B00"/>
<path d="M82.0262 4.4383L79.2158 7.22197V7.85986L82.0262 5.07428V4.4383Z" fill="#3F4B00"/>
<path d="M79.2158 8.58626V8.7312L82.0262 5.94786V5.80101L79.2158 8.58626Z" fill="#3F4B00"/>
<path d="M82.0262 5.94791L79.2158 8.73125V9.21948L82.0262 6.43895V5.94791Z" fill="#3F4B00"/>
<path d="M79.2158 9.94968V10.0048L82.0262 7.21884V7.16253L79.2158 9.94968Z" fill="#3F4B00"/>
<path d="M79.2158 10.5879L82.0262 7.7995V7.21894L79.2158 10.0044V10.5879Z" fill="#3F4B00"/>
<path d="M82.0262 8.53058L79.2158 11.313V11.9521L82.0262 9.1678V8.53058Z" fill="#3F4B00"/>
<path d="M82.0262 9.89399L79.2158 12.6764V13.3156L82.0262 10.5277V9.89399Z" fill="#3F4B00"/>
<path d="M79.2158 14.0413V14.4585L82.0262 11.6755V11.2567L79.2158 14.0413Z" fill="#3F4B00"/>
<path d="M79.2158 14.6772L82.0262 11.8914V11.6755L79.2158 14.4588V14.6772Z" fill="#3F4B00"/>
<path d="M79.2158 15.7343L82.0262 12.9478V12.6185L79.2158 15.4034V15.7343Z" fill="#3F4B00"/>
<path d="M82.0262 12.9477L79.2158 15.7341V16.0419L82.0262 13.2554V12.9477Z" fill="#3F4B00"/>
<path d="M82.0262 13.9846L79.2158 16.7676V17.4036L82.0262 14.6209V13.9846Z" fill="#3F4B00"/>
<path d="M82.0262 15.347L79.2158 18.1332V18.7704L82.0262 15.9837V15.347Z" fill="#3F4B00"/>
<path d="M82.0262 16.767V16.7101L79.2158 19.495V19.551L82.0262 16.767Z" fill="#3F4B00"/>
<path d="M82.0262 16.767L79.2158 19.551V20.1304L82.0262 17.3458V16.767Z" fill="#3F4B00"/>
<path d="M82.0262 18.6766V18.0747L79.2158 20.8584V21.4622L82.0262 18.6766Z" fill="#3F4B00"/>
<path d="M82.0262 18.6765L79.2158 21.4621V21.4962L82.0262 18.7119V18.6765Z" fill="#3F4B00"/>
<path d="M82.0262 19.4376L79.2158 22.222V22.8573L82.0262 20.0749V19.4376Z" fill="#3F4B00"/>
<path d="M82.0262 20.8014L79.2158 23.5879V24.2223L82.0262 21.4364V20.8014Z" fill="#3F4B00"/>
<path d="M82.0262 22.4971V22.165L79.2158 24.9508V25.2808L82.0262 22.4971Z" fill="#3F4B00"/>
<path d="M79.2158 25.5865L82.0262 22.7995V22.4968L79.2158 25.2808V25.5865Z" fill="#3F4B00"/>
<path d="M77.5071 26.6438L77.333 26.8143V27.1465L77.7059 26.7746L77.8386 26.6438H77.5071Z" fill="#3F4B00"/>
<path d="M78.1485 26.6439H77.8386L77.7059 26.7753L77.3335 27.1466V27.4495L78.1485 26.6439Z" fill="#3F4B00"/>
<path d="M82.0262 23.7678V23.5274L79.2158 26.3146V26.5543L82.0262 23.7678Z" fill="#3F4B00"/>
<path d="M82.0262 24.1635V23.7679L79.2158 26.5537V26.6441H79.1236H78.8822L77.3335 28.1793V28.4309H77.7189L82.0262 24.1635Z" fill="#3F4B00"/>
<path d="M79.0914 28.4313L82.0261 25.5268V24.8937L78.4517 28.4313H78.6011H79.0914Z" fill="#3F4B00"/>
<path d="M82.0258 26.6438V26.2567L79.8267 28.4316H80.4692L82.2754 26.6438H82.0258Z" fill="#3F4B00"/>
<path d="M83.6235 26.6438H83.0095L81.2026 28.4316H81.8129L83.6235 26.6438Z" fill="#3F4B00"/>
<path d="M83.6236 26.6438L81.813 28.4316H81.8465L83.6546 26.6438H83.6236Z" fill="#3F4B00"/>
<path d="M83.9086 27.6329V27.1161L82.5806 28.4316H83.1012L83.9086 27.6329Z" fill="#3F4B00"/>
<path d="M83.9085 27.6329L83.1011 28.4316H83.2243L83.9085 27.7521V27.6329Z" fill="#3F4B00"/>
<path d="M44.0921 26.6361H45.6213H45.9754V26.2855V3.90288V3.55152H45.6213H44.0921V0.772106H45.6213H49.8806L54.9663 16.1815L55.6564 18.275V16.0726V3.90288V3.55152H55.3039H53.7744V0.772106H61.348V3.55152H59.8225H59.4668V3.90288V29.4141H55.5582L50.4773 14.0078L49.7855 11.9147V14.1165V26.2855V26.6361H50.1402H51.6669V29.4141H44.0921V26.6361ZM61.0576 5.1311H62.9416V1.64974L61.7027 0.422199H53.4219V3.90288L54.6589 5.1311H55.3039V13.5418L51.377 1.64974L50.1402 0.422199H45.6213H43.7402V3.90288L44.9798 5.1311H45.6213V26.2855H43.7402V29.7653L44.9798 30.9956H53.262V27.5137L52.0226 26.2855H51.377V17.8744L55.3039 29.7653L56.5422 30.9956H61.0576V5.1311Z" fill="#3F4B00"/>
<path d="M44.5933 1.20465V1.58496L44.9778 1.20465H44.5933Z" fill="#3F4B00"/>
<path d="M45.7125 1.20494L44.5933 2.31446V2.72136V2.95044L46.3537 1.20494H45.7125Z" fill="#3F4B00"/>
<path d="M45.2803 2.99524H45.6025L47.4081 1.20497H47.0864L45.2803 2.99524Z" fill="#3F4B00"/>
<path d="M45.923 2.99524L47.7292 1.20497H47.4076L45.6021 2.99524H45.923Z" fill="#3F4B00"/>
<path d="M48.464 1.20498L46.4766 3.17272V3.80994L49.1059 1.20498H48.464Z" fill="#3F4B00"/>
<path d="M46.4766 4.53696V5.17261L49.7589 1.92033L49.6006 1.44343L46.4766 4.53696Z" fill="#3F4B00"/>
<path d="M46.4766 5.90095V5.94751L47.2075 5.22268L49.9506 2.50452L49.9383 2.46907L46.4766 5.90095Z" fill="#3F4B00"/>
<path d="M46.4766 5.9479V6.53564L50.0969 2.95018L49.9506 2.50446L47.2075 5.22307L46.4766 5.9479Z" fill="#3F4B00"/>
<path d="M46.4766 7.26557V7.85522L48.1681 6.17636L50.4254 3.94644L50.276 3.49792L46.4766 7.26557Z" fill="#3F4B00"/>
<path d="M50.4259 3.94666L48.1686 6.17669L46.4771 7.85545V7.89954L50.4357 3.97661L50.4259 3.94666Z" fill="#3F4B00"/>
<path d="M54.2739 1.20468V1.53955L54.6135 1.20468H54.2739Z" fill="#3F4B00"/>
<path d="M46.4766 8.63079V9.26453L50.776 5.00392L50.6174 4.52724L46.4766 8.63079Z" fill="#3F4B00"/>
<path d="M50.9537 5.55286L46.4771 9.99251V10.6294L51.1148 6.03291L50.9537 5.55286Z" fill="#3F4B00"/>
<path d="M55.3445 1.2049L54.2739 2.26371V2.90283L55.9876 1.2049H55.3445Z" fill="#3F4B00"/>
<path d="M54.9155 2.99524H55.2371L57.0452 1.20497H56.7217L54.9155 2.99524Z" fill="#3F4B00"/>
<path d="M57.0455 1.20497L55.2373 2.99524H55.5558L57.3671 1.20497H57.0455Z" fill="#3F4B00"/>
<path d="M49.2862 8.89242V8.74433L49.3232 8.85708L50.0968 8.08737L51.3758 6.82202L51.2943 6.58161L46.4766 11.3565V11.6782L49.2862 8.89242Z" fill="#3F4B00"/>
<path d="M49.3997 9.09119L51.453 7.05927L51.3756 6.82144L50.0972 8.08746L49.3228 8.85705L49.3997 9.09119Z" fill="#3F4B00"/>
<path d="M49.2862 9.20669V8.89245L46.4766 11.6784V11.9932L49.2862 9.20669Z" fill="#3F4B00"/>
<path d="M49.5835 9.64042L49.6416 9.81409L50.7396 8.72364L51.6898 7.78038L51.6335 7.61165L49.5835 9.64042Z" fill="#3F4B00"/>
<path d="M56.1558 3.12727V3.35669L58.3299 1.20496H58.0983L56.1558 3.12727Z" fill="#3F4B00"/>
<path d="M50.7406 8.7237L49.6416 9.81718L49.7424 10.1224L51.7924 8.08704L51.6904 7.77999L50.7406 8.7237Z" fill="#3F4B00"/>
<path d="M56.1558 3.76355L58.7421 1.20458H58.3306L56.1558 3.35643V3.76355Z" fill="#3F4B00"/>
<path d="M49.2862 10.1647V9.93526L46.4766 12.7208V12.9496L49.2862 10.1647Z" fill="#3F4B00"/>
<path d="M49.2862 10.5709V10.1647L46.4766 12.9496V13.3556L49.2862 10.5709Z" fill="#3F4B00"/>
<path d="M51.9736 8.63642L49.9224 10.6701L50.0793 11.149L52.1303 9.11713L51.9736 8.63642Z" fill="#3F4B00"/>
<path d="M59.4738 1.20499L56.1558 4.49193V5.12634L60.1169 1.20499H59.4738Z" fill="#3F4B00"/>
<path d="M46.4766 14.7198L49.286 11.9334V11.2983L46.4766 14.0858V14.7198Z" fill="#3F4B00"/>
<path d="M58.9675 3.07001L56.1553 5.85492V6.49158L58.9675 3.706V3.07001Z" fill="#3F4B00"/>
<path d="M60.8493 1.20497L59.0425 2.99524H59.6856L60.8493 1.84062V1.20497Z" fill="#3F4B00"/>
<path d="M50.4199 12.1769L52.4712 10.1469L52.3126 9.66369L50.2607 11.698L50.4199 12.1769Z" fill="#3F4B00"/>
<path d="M46.4766 16.0831L49.286 13.2947V12.6616L46.4766 15.4478V16.0831Z" fill="#3F4B00"/>
<path d="M60.4185 2.99561H60.85V2.5656L60.4185 2.99561Z" fill="#3F4B00"/>
<path d="M58.9675 4.43488L56.1553 7.21845V7.8551L58.9675 5.06739V4.43488Z" fill="#3F4B00"/>
<path d="M52.801 11.1409L52.6503 10.6908L50.5962 12.7248L50.7478 13.1721L52.801 11.1409Z" fill="#3F4B00"/>
<path d="M49.2862 14.0263L46.4766 16.8112V17.4061L49.2862 14.6196V14.0263Z" fill="#3F4B00"/>
<path d="M52.8093 11.1725L52.8008 11.1412L50.7476 13.1724L50.7573 13.2037L52.8093 11.1725Z" fill="#3F4B00"/>
<path d="M49.2862 14.661V14.62L46.4766 17.4066V17.4475L49.2862 14.661Z" fill="#3F4B00"/>
<path d="M56.1558 8.5826V9.08643L58.968 6.29939V5.79735L56.1558 8.5826Z" fill="#3F4B00"/>
<path d="M58.9675 6.29942L56.1553 9.08646V9.21985L58.9675 6.4346V6.29942Z" fill="#3F4B00"/>
<path d="M53.1157 12.0992L52.9904 11.7189L50.9375 13.753L51.065 14.1311L53.1157 12.0992Z" fill="#3F4B00"/>
<path d="M46.4766 18.6765L49.286 15.8935V15.3889L46.4766 18.1739V18.6765Z" fill="#3F4B00"/>
<path d="M49.2862 16.0235V15.8932L46.4766 18.6765V18.8099L49.2862 16.0235Z" fill="#3F4B00"/>
<path d="M53.1489 12.1985L53.1161 12.099L51.0645 14.1343L51.0929 14.2341L53.1489 12.1985Z" fill="#3F4B00"/>
<path d="M58.9675 7.16071L56.1553 9.94539V10.5823L58.9675 7.79602V7.16071Z" fill="#3F4B00"/>
<path d="M46.4766 20.1732L49.286 17.388V16.7511L46.4766 19.5366V20.1732Z" fill="#3F4B00"/>
<path d="M51.4366 15.261L53.4893 13.2259L53.3287 12.7478L51.2769 14.7803L51.4366 15.261Z" fill="#3F4B00"/>
<path d="M58.9675 8.52277L56.1553 11.3099V11.9443L58.9675 9.15999V8.52277Z" fill="#3F4B00"/>
<path d="M46.4766 21.5375L49.286 18.7522V18.1173L46.4766 20.899V21.5375Z" fill="#3F4B00"/>
<path d="M51.7764 16.2876L53.8264 14.2516L53.6667 13.7744L51.6172 15.8081L51.7764 16.2876Z" fill="#3F4B00"/>
<path d="M56.1558 12.6735V12.9067L58.968 10.1205V9.88702L56.1558 12.6735Z" fill="#3F4B00"/>
<path d="M58.9675 10.1202L56.1553 12.9063V13.3092L58.9675 10.5226V10.1202Z" fill="#3F4B00"/>
<path d="M54.0665 14.978L54.0077 14.8044L51.957 16.8356L52.0152 17.0093L54.0665 14.978Z" fill="#3F4B00"/>
<path d="M46.4766 22.4955L49.286 19.713V19.479L46.4766 22.2633V22.4955Z" fill="#3F4B00"/>
<path d="M54.1651 15.2826L54.0663 14.978L52.0146 17.0094L52.1144 17.3151L54.1651 15.2826Z" fill="#3F4B00"/>
<path d="M49.2862 20.1153V19.7128L46.4766 22.4952V22.8983L49.2862 20.1153Z" fill="#3F4B00"/>
<path d="M56.1558 14.1787L56.2009 14.1339L58.968 11.3929V11.2527L56.1558 14.0357V14.1787Z" fill="#3F4B00"/>
<path d="M56.2009 14.1339L56.1558 14.1786V14.6722L58.9678 11.886V11.3944L56.2009 14.1339Z" fill="#3F4B00"/>
<path d="M54.3815 15.9345L54.348 15.8306L52.2964 17.8606L52.3283 17.9701L54.3815 15.9345Z" fill="#3F4B00"/>
<path d="M46.4766 23.7692L49.286 20.9858V20.8456L46.4766 23.6279V23.7692Z" fill="#3F4B00"/>
<path d="M54.5058 16.3101L54.3817 15.9345L52.3281 17.9702L52.4545 18.3433L54.5058 16.3101Z" fill="#3F4B00"/>
<path d="M49.2862 21.478V20.9857L46.4766 23.7687V24.267L49.2862 21.478Z" fill="#3F4B00"/>
<path d="M58.9675 12.6147L56.1553 15.4003V16.0375L58.9675 13.2519V12.6147Z" fill="#3F4B00"/>
<path d="M46.4766 25.6273L49.286 22.8443V22.2077L46.4766 24.992V25.6273Z" fill="#3F4B00"/>
<path d="M52.7932 19.3699L54.8445 17.3374L54.6816 16.8591L52.6353 18.8929L52.7932 19.3699Z" fill="#3F4B00"/>
<path d="M44.5933 27.0694V27.4932L45.0223 27.0694H44.5933Z" fill="#3F4B00"/>
<path d="M58.9675 13.9784L56.1553 16.7642V17.4005L58.9675 14.615V13.9784Z" fill="#3F4B00"/>
<path d="M44.5933 28.86L46.3994 27.0697H45.7575L44.5933 28.2234V28.86Z" fill="#3F4B00"/>
<path d="M55.0239 17.8866L52.9707 19.9185L53.1324 20.3987L55.1824 18.3642L55.0239 17.8866Z" fill="#3F4B00"/>
<path d="M46.4766 26.9928L49.286 24.2063V23.57L46.4766 26.3537V26.9928Z" fill="#3F4B00"/>
<path d="M58.9675 15.342L56.1553 18.1276V18.6339V18.7622L58.9675 15.9773V15.342Z" fill="#3F4B00"/>
<path d="M55.4883 19.2941L55.3629 18.9148L53.3135 20.9453L53.437 21.3279L55.4883 19.2941Z" fill="#3F4B00"/>
<path d="M49.2862 24.9334L45.3252 28.86H45.8375L49.2862 25.441V24.9334Z" fill="#3F4B00"/>
<path d="M49.2861 25.5716V25.4408L45.8374 28.8597H45.97L49.2861 25.5716Z" fill="#3F4B00"/>
<path d="M55.5236 19.3949L55.4879 19.2941L53.4365 21.3282L53.4704 21.4255L55.5236 19.3949Z" fill="#3F4B00"/>
<path d="M47.123 28.86L49.2863 26.7145V26.2992L46.7031 28.86H47.123Z" fill="#3F4B00"/>
<path d="M56.1558 19.4896V19.9069L58.968 17.1213V16.7032L56.1558 19.4896Z" fill="#3F4B00"/>
<path d="M55.8055 20.2555L55.7019 19.9428L53.6499 21.9716L53.7516 22.2867L55.8055 20.2555Z" fill="#3F4B00"/>
<path d="M56.1558 19.9072V20.1263L58.968 17.342V17.1214L56.1558 19.9072Z" fill="#3F4B00"/>
<path d="M49.2859 26.9331V26.7146L47.1226 28.8599H47.3433L49.2859 26.9331Z" fill="#3F4B00"/>
<path d="M55.8617 20.4217L55.8061 20.2558L53.752 22.287L53.8085 22.4524L55.8617 20.4217Z" fill="#3F4B00"/>
<path d="M48.7198 28.86L50.5291 27.0697H49.8861L48.0786 28.86H48.7198Z" fill="#3F4B00"/>
<path d="M54.1492 23.4799L58.9683 18.7043V18.0693L56.156 20.853V21.3166L56.042 20.9672L53.9907 22.9991L54.1492 23.4799Z" fill="#3F4B00"/>
<path d="M50.0967 28.86L51.1692 27.7959V27.1603L49.4536 28.86H50.0967Z" fill="#3F4B00"/>
<path d="M54.4883 24.5065L58.9674 20.0697V19.4343L54.3291 24.0301L54.4883 24.5065Z" fill="#3F4B00"/>
<path d="M58.9679 20.9398V20.7955L54.6685 25.0549L54.7007 25.165L58.9679 20.9398Z" fill="#3F4B00"/>
<path d="M50.8301 28.8604H50.977L51.1696 28.6666V28.5223L50.8301 28.8604Z" fill="#3F4B00"/>
<path d="M58.9679 20.9398L54.7007 25.165L54.8265 25.5363L58.9679 21.4327V20.9398Z" fill="#3F4B00"/>
<path d="M50.9766 28.8604H51.1693V28.6666L50.9766 28.8604Z" fill="#3F4B00"/>
<path d="M55.0187 26.1223L58.9675 22.2129V22.1603L55.0083 26.0838L55.0187 26.1223Z" fill="#3F4B00"/>
<path d="M58.9678 22.7979V22.2157L55.019 26.1246L55.1653 26.5625L58.9678 22.7979Z" fill="#3F4B00"/>
<path d="M55.5039 27.5912L58.9676 24.16V23.5221L55.3467 27.1136L55.5039 27.5912Z" fill="#3F4B00"/>
<path d="M58.9677 24.8857L55.6851 28.1408L55.8418 28.6168L58.9677 25.5224V24.8857Z" fill="#3F4B00"/>
<path d="M58.9677 26.2501L56.3354 28.86H56.7578L58.9677 26.6679V26.2501Z" fill="#3F4B00"/>
<path d="M58.9677 26.8861V26.6701L56.7578 28.8604H56.9796L58.9677 26.8861Z" fill="#3F4B00"/>
<path d="M58.0441 28.86L58.968 27.9408V27.6158L57.7114 28.86H58.0441Z" fill="#3F4B00"/>
<path d="M58.9679 28.2494V27.9411L58.0439 28.8604H58.3551L58.9679 28.2494Z" fill="#3F4B00"/>
<path d="M145.067 4.21238V3.8637H144.712H143.185V1.08104H150.757V3.8637H149.229H148.875V4.21238V29.7261H144.969L139.894 14.3208L139.2 12.2216V14.4266V26.5937V26.9443H139.555H141.083V29.7261H133.51V26.9443H135.04H135.393V26.5937V4.21238V3.8637H135.04H133.51V1.08104H135.04H139.301L144.375 16.4885L145.067 18.5877V16.3802V4.21238ZM133.157 4.21238V4.22966L134.394 5.45776H135.04V26.5937H133.157V26.6135V30.0776V30.0929L134.394 31.3223H142.675V27.841L141.436 26.6135V26.5937H140.791V18.2033L144.712 30.0929L145.954 31.3223H150.471V5.45776H152.352V1.9764L151.114 0.748969V0.731693H142.832V0.748969V4.21238V4.22966L144.07 5.45776H144.712V13.87L140.791 1.9764L139.563 0.757946L139.555 0.731693H135.04H133.157V0.748969V4.21238Z" fill="#3F4B00"/>
<path d="M134.379 1.51446L134.01 1.88131V2.51819L135.02 1.51446H134.379Z" fill="#3F4B00"/>
<path d="M134.01 3.24496V3.30408H134.197L136.001 1.51448H135.755L134.01 3.24496Z" fill="#3F4B00"/>
<path d="M134.592 3.30408L136.397 1.51448H136.001L134.196 3.30408H134.592Z" fill="#3F4B00"/>
<path d="M135.326 3.30408H135.48L137.285 1.51448H137.134L135.326 3.30408Z" fill="#3F4B00"/>
<path d="M137.775 1.51443H137.285L135.479 3.30402H135.894V3.38232L137.775 1.51443Z" fill="#3F4B00"/>
<path d="M135.894 4.10718V4.74316L138.989 1.67465L138.937 1.51445H138.506L135.894 4.10718Z" fill="#3F4B00"/>
<path d="M139.17 2.22346L135.894 5.47068V6.10779L139.328 2.7035L139.17 2.22346Z" fill="#3F4B00"/>
<path d="M135.894 6.83366V7.35095L139.635 3.64096L139.508 3.24999L135.894 6.83366Z" fill="#3F4B00"/>
<path d="M139.635 3.6409L135.894 7.351V7.46936L139.666 3.73042L139.635 3.6409Z" fill="#3F4B00"/>
<path d="M135.894 8.19598V8.62476L139.953 4.59862L139.848 4.27811L135.894 8.19598Z" fill="#3F4B00"/>
<path d="M135.894 8.83447L140.005 4.75628L139.953 4.60079L135.894 8.62794V8.83447Z" fill="#3F4B00"/>
<path d="M140.187 5.30564L135.894 9.56119V10.2003L140.344 5.78635L140.187 5.30564Z" fill="#3F4B00"/>
<path d="M144.014 1.51448L143.685 1.83881V2.47412L144.656 1.51448H144.014Z" fill="#3F4B00"/>
<path d="M140.527 6.33351L135.894 10.9249V11.5612L140.685 6.81613L140.527 6.33351Z" fill="#3F4B00"/>
<path d="M145.39 1.51448L143.685 3.20277V3.30408H144.224L146.032 1.51448H145.39Z" fill="#3F4B00"/>
<path d="M138.702 9.65955V9.50429L135.894 12.2883V12.4431L138.702 9.65955Z" fill="#3F4B00"/>
<path d="M138.815 9.39352L138.855 9.51086L140.904 7.47772L140.864 7.36104L138.815 9.39352Z" fill="#3F4B00"/>
<path d="M144.958 3.30408H145.115L146.923 1.51448H146.765L144.958 3.30408Z" fill="#3F4B00"/>
<path d="M145.567 3.30415V3.33826L147.407 1.51456H146.922L145.116 3.30415H145.567Z" fill="#3F4B00"/>
<path d="M138.702 10.1403V9.65961L135.894 12.4432V12.9246L138.702 10.1403Z" fill="#3F4B00"/>
<path d="M138.854 9.5108L138.972 9.8717L141.022 7.84102L140.905 7.47765L138.854 9.5108Z" fill="#3F4B00"/>
<path d="M141.201 8.39096L139.151 10.421L139.313 10.9011L141.36 8.86865L141.201 8.39096Z" fill="#3F4B00"/>
<path d="M135.894 14.2888L138.702 11.5036V10.8667L135.894 13.6516V14.2888Z" fill="#3F4B00"/>
<path d="M148.144 1.51443L145.567 4.06487V4.70276L148.784 1.51443H148.144Z" fill="#3F4B00"/>
<path d="M141.54 9.4186L139.491 11.4467L139.65 11.9293L141.7 9.89741L141.54 9.4186Z" fill="#3F4B00"/>
<path d="M135.894 15.6544L138.702 12.8679V12.2311L135.894 15.0165V15.6544Z" fill="#3F4B00"/>
<path d="M149.518 1.5145L145.567 5.42777V6.06555L150.162 1.5145H149.518Z" fill="#3F4B00"/>
<path d="M139.83 12.4747L139.991 12.9554L142.038 10.9261L141.88 10.4447L139.83 12.4747Z" fill="#3F4B00"/>
<path d="M148.379 4.00867L145.567 6.79111V7.42957L148.379 4.64376V4.00867Z" fill="#3F4B00"/>
<path d="M135.894 17.0168L138.702 14.2335V13.5972L135.894 16.379V17.0168Z" fill="#3F4B00"/>
<path d="M150.259 2.1417L149.086 3.30383H149.728L150.259 2.77959V2.1417Z" fill="#3F4B00"/>
<path d="M142.326 11.7978L142.218 11.4735L140.171 13.5049L140.276 13.8259L142.326 11.7978Z" fill="#3F4B00"/>
<path d="M145.567 8.15693V8.58447L148.379 5.80024V5.37045L145.567 8.15693Z" fill="#3F4B00"/>
<path d="M138.702 15.3881V14.9586L135.894 17.7458V18.1733L138.702 15.3881Z" fill="#3F4B00"/>
<path d="M148.379 5.79988L145.567 8.58411V8.79199L148.379 6.00607V5.79988Z" fill="#3F4B00"/>
<path d="M138.702 15.3881L135.894 18.1733V18.3795L138.702 15.5962V15.3881Z" fill="#3F4B00"/>
<path d="M142.376 11.9543L142.326 11.7978L140.276 13.826L140.33 13.9818L142.376 11.9543Z" fill="#3F4B00"/>
<path d="M142.642 12.7596L142.555 12.5008L140.508 14.5321L140.594 14.7865L142.642 12.7596Z" fill="#3F4B00"/>
<path d="M145.567 9.51997V9.85889L148.379 7.07398V6.73226L145.567 9.51997Z" fill="#3F4B00"/>
<path d="M138.702 16.6619V16.3216L135.894 19.1053V19.4471L138.702 16.6619Z" fill="#3F4B00"/>
<path d="M145.567 10.1547L148.379 7.36908V7.07336L145.567 9.85928V10.1547Z" fill="#3F4B00"/>
<path d="M142.718 12.9812L142.642 12.7593L140.594 14.7862L140.665 15.0112L142.718 12.9812Z" fill="#3F4B00"/>
<path d="M138.702 16.6619L135.894 19.4471V19.745L138.702 16.9592V16.6619Z" fill="#3F4B00"/>
<path d="M141.007 16.04L143.055 14.0088L142.896 13.5286L140.846 15.5574L141.007 16.04Z" fill="#3F4B00"/>
<path d="M148.379 8.09561L145.567 10.8852V11.5209L148.379 8.7326V8.09561Z" fill="#3F4B00"/>
<path d="M138.702 17.6844L135.894 20.47V21.1066L138.702 18.3217V17.6844Z" fill="#3F4B00"/>
<path d="M138.702 19.0471L135.894 21.8348V22.4692L138.702 19.6843V19.0471Z" fill="#3F4B00"/>
<path d="M148.379 9.4608L145.567 12.2478V12.8842L148.379 10.0987V9.4608Z" fill="#3F4B00"/>
<path d="M141.345 17.0659L143.394 15.0366L143.234 14.5559L141.186 16.5877L141.345 17.0659Z" fill="#3F4B00"/>
<path d="M138.702 20.4799V20.4114L135.894 23.1982V23.2643L138.702 20.4799Z" fill="#3F4B00"/>
<path d="M145.567 13.6107V13.678L148.379 10.8921V10.8251L145.567 13.6107Z" fill="#3F4B00"/>
<path d="M143.591 15.635L143.573 15.5862L141.524 17.615L141.54 17.6631L143.591 15.635Z" fill="#3F4B00"/>
<path d="M143.731 16.0666L143.591 15.6353L141.54 17.6625L141.683 18.0947L143.731 16.0666Z" fill="#3F4B00"/>
<path d="M148.379 10.8921L145.567 13.6777V14.2463L148.379 11.4611V10.8921Z" fill="#3F4B00"/>
<path d="M138.702 20.4799L135.894 23.2643V23.8335L138.702 21.0477V20.4799Z" fill="#3F4B00"/>
<path d="M138.702 22.3891V21.7739L135.894 24.5634V25.1749L138.702 22.3891Z" fill="#3F4B00"/>
<path d="M144.064 17.0753L143.915 16.6137L141.865 18.6412L142.017 19.1053L144.064 17.0753Z" fill="#3F4B00"/>
<path d="M145.567 14.9737V15.5884L148.379 12.8044V12.186L145.567 14.9737Z" fill="#3F4B00"/>
<path d="M148.379 12.8044L145.567 15.5881V15.6094L148.379 12.8247V12.8044Z" fill="#3F4B00"/>
<path d="M138.702 22.3891L135.894 25.1749V25.1973L138.702 22.411V22.3891Z" fill="#3F4B00"/>
<path d="M144.07 17.0935L144.065 17.0754L142.017 19.1048L142.022 19.1235L144.07 17.0935Z" fill="#3F4B00"/>
<path d="M148.379 13.5518L145.567 16.3382V16.9727L148.379 14.1902V13.5518Z" fill="#3F4B00"/>
<path d="M142.361 20.151L144.409 18.1204L144.253 17.639L142.202 19.6722L142.361 20.151Z" fill="#3F4B00"/>
<path d="M134.427 27.379L134.01 27.7899V28.4243L135.068 27.379H134.427Z" fill="#3F4B00"/>
<path d="M135.894 26.5621L138.702 23.7763V23.14L135.894 25.923V26.5621Z" fill="#3F4B00"/>
<path d="M138.701 24.5031L135.894 27.2895V27.3791H135.801L134.01 29.1514V29.1669H134.636L138.701 25.1384V24.5031Z" fill="#3F4B00"/>
<path d="M148.379 14.9155L145.567 17.7032V18.3369L148.379 15.552V14.9155Z" fill="#3F4B00"/>
<path d="M142.697 21.1776L144.749 19.1476L144.592 18.6669L142.542 20.6994L142.697 21.1776Z" fill="#3F4B00"/>
<path d="M138.701 26.2098V25.8642L135.368 29.1671H135.716L138.701 26.2098Z" fill="#3F4B00"/>
<path d="M145.567 19.065V19.4027L148.379 16.6203V16.2786L145.567 19.065Z" fill="#3F4B00"/>
<path d="M145.013 19.9541L144.93 19.699L142.88 21.7271L142.965 21.9841L145.013 19.9541Z" fill="#3F4B00"/>
<path d="M148.379 16.6202L145.567 19.4027V19.7028L148.379 16.917V16.6202Z" fill="#3F4B00"/>
<path d="M145.086 20.1748L145.013 19.9541L142.965 21.9842L143.04 22.2061L145.086 20.1748Z" fill="#3F4B00"/>
<path d="M136.013 29.167L138.702 26.5004V26.2093L135.716 29.167H136.013Z" fill="#3F4B00"/>
<path d="M145.567 20.4286V20.6793L148.379 17.8941V17.6456L145.567 20.4286Z" fill="#3F4B00"/>
<path d="M145.265 20.7238L143.22 22.7544L143.281 22.9447L145.332 20.9147L145.265 20.7238Z" fill="#3F4B00"/>
<path d="M138.81 27.379H138.702V27.2304L136.746 29.1674H136.999L138.81 27.379Z" fill="#3F4B00"/>
<path d="M145.428 21.2051L145.332 20.9147L143.281 22.9447L143.377 23.2357L145.428 21.2051Z" fill="#3F4B00"/>
<path d="M148.379 17.8941L145.567 20.6791V21.0671L148.379 18.28V17.8941Z" fill="#3F4B00"/>
<path d="M138.81 27.379L136.999 29.1674H137.389L139.196 27.379H138.81Z" fill="#3F4B00"/>
<path d="M143.716 24.2621L148.379 19.6425V19.009L143.557 23.7832L143.716 24.2621Z" fill="#3F4B00"/>
<path d="M139.93 27.379L138.122 29.1674H138.764L140.572 27.379H139.93Z" fill="#3F4B00"/>
<path d="M140.583 28.0945L139.498 29.1667H140.141L140.583 28.7294V28.0945Z" fill="#3F4B00"/>
<path d="M148.379 21.0066V20.3713L143.895 24.8109L144.055 25.2898L148.379 21.0066Z" fill="#3F4B00"/>
<path d="M148.379 21.7341L144.236 25.837L144.389 26.3024L148.379 22.3507V21.7341Z" fill="#3F4B00"/>
<path d="M148.379 22.351L144.389 26.3027L144.396 26.3174L148.379 22.3707V22.351Z" fill="#3F4B00"/>
<path d="M148.379 23.0987L144.573 26.8676L144.705 27.2645L148.379 23.6223V23.0987Z" fill="#3F4B00"/>
<path d="M148.379 23.6226L144.705 27.2648L144.734 27.3455L148.379 23.7369V23.6226Z" fill="#3F4B00"/>
<path d="M148.379 24.462L144.916 27.8932L145.072 28.3746L148.379 25.0987V24.462Z" fill="#3F4B00"/>
<path d="M148.379 25.8247L145.252 28.9226L145.333 29.1667H145.643L148.379 26.4614V25.8247Z" fill="#3F4B00"/>
<path d="M148.378 27.1871L146.381 29.167H146.639L148.378 27.441V27.1871Z" fill="#3F4B00"/>
<path d="M148.379 27.4413L146.639 29.1667H147.024L148.379 27.8247V27.4413Z" fill="#3F4B00"/>
<path d="M147.756 29.167H147.922L148.379 28.7157V28.5511L147.756 29.167Z" fill="#3F4B00"/>
<path d="M147.923 29.167H148.379V28.7157L147.923 29.167Z" fill="#3F4B00"/>
<mask id="mask0_2023_45" style="mask-type:luminance" maskUnits="userSpaceOnUse" x="0" y="-10" width="162" height="50">
<path d="M0 -10H162V40H0V-10Z" fill="white"/>
</mask>
<g mask="url(#mask0_2023_45)">
<path d="M18.2771 26.2009V4.83678H20.1598V3.96105L21.0228 4.83678H21.6675L21.6728 24.2101V24.9818C21.6612 25.2548 21.6859 26.4144 19.3562 26.4144C18.9197 26.4144 18.569 26.3734 18.2803 26.3008C18.2771 26.2632 18.2771 26.2285 18.2771 26.2009ZM10.9882 0.459386H18.5623V3.23992H17.0339H16.6813V3.58893V24.9669C16.7221 26.1284 17.6723 26.768 19.3562 26.768C21.0641 26.768 21.9865 26.163 22.0241 25.0176V24.9944L22.0254 24.99V24.9818L22.0196 3.58893V3.23992H21.6662H20.1396V0.459386H27.7131V3.23992H26.1839H25.8285V3.58893L25.8352 24.9368C25.8352 28.3167 23.8956 29.7596 19.3562 29.7596C14.8129 29.7596 12.8716 28.3167 12.8716 24.9368V3.58893V3.23992H12.5178H10.9882V0.459386ZM27.4259 26.1822L27.4227 4.83678H29.3064V1.35362L28.0675 0.12608V0.107572H19.7864V0.12608V0.984306L18.9197 0.12608V0.107572H10.6357V0.12608V3.58893V3.60609L11.8734 4.83678H12.5178L12.5196 24.9568V24.99C12.5196 25.1158 12.5247 25.2369 12.5298 25.3593C12.5338 25.4151 12.5363 25.4732 12.5389 25.5277C12.5456 25.6071 12.5538 25.6811 12.5603 25.7556C12.5728 25.8757 12.5864 25.9937 12.6062 26.1098C12.6094 26.143 12.6166 26.1796 12.6217 26.2156C12.6394 26.3039 12.6549 26.3881 12.6722 26.4746C12.6722 26.4757 12.6759 26.4786 12.6759 26.4786C12.8172 27.1308 13.0667 27.6917 13.4259 28.1605L13.4976 28.2394C13.6439 28.4156 13.8036 28.5802 13.9815 28.7314L15.0741 29.8437C16.1674 30.8751 17.9736 31.3551 20.5951 31.3551C25.3519 31.3551 27.4259 29.7717 27.4259 26.1822Z" fill="#3F4B00"/>
<path d="M11.4893 1.78845L12.3961 0.891188H11.7545L11.4893 1.15314V1.78845Z" fill="#3F4B00"/>
<path d="M13.1286 0.890751L11.4893 2.51767V2.68225H11.9663L13.7705 0.890751H13.1286Z" fill="#3F4B00"/>
<path d="M14.5058 0.890751L12.6978 2.68225H13.34L15.1484 0.890751H14.5058Z" fill="#3F4B00"/>
<path d="M13.3691 3.87L16.3773 0.890781H15.8817L13.3691 3.37896V3.87Z" fill="#3F4B00"/>
<path d="M16.5241 0.890731H16.3772L13.3691 3.86994V4.01624L16.5241 0.890731Z" fill="#3F4B00"/>
<path d="M13.3691 5.37854L17.8995 0.891096H17.257L13.3691 4.74065V5.37854Z" fill="#3F4B00"/>
<path d="M13.3691 6.74133L16.1802 3.95833V3.31921L13.3691 6.10535V6.74133Z" fill="#3F4B00"/>
<path d="M17.4697 2.68225L18.0648 2.09193V1.45538L16.8271 2.68225H17.4697Z" fill="#3F4B00"/>
<path d="M16.1797 4.68221L13.3687 7.46746V7.6897L16.1797 4.90412V4.68221Z" fill="#3F4B00"/>
<path d="M20.6396 0.904785L20.6531 0.890201H20.6396V0.904785Z" fill="#3F4B00"/>
<path d="M16.1797 5.32071V4.90416L13.3687 7.68963V8.10315L16.1797 5.32071Z" fill="#3F4B00"/>
<path d="M20.6396 1.76428L21.5193 0.890465H21.3855L20.6396 1.63224V1.76428Z" fill="#3F4B00"/>
<path d="M13.3691 8.96472L16.1802 6.17634V6.04833L13.3691 8.83144V8.96472Z" fill="#3F4B00"/>
<path d="M16.1797 6.68428V6.17664L13.3687 8.96503V9.46729L16.1797 6.68428Z" fill="#3F4B00"/>
<path d="M20.6396 1.76547V2.26941L22.0286 0.890418H21.5193L20.6396 1.76547Z" fill="#3F4B00"/>
<path d="M21.5967 2.68225L23.4055 0.890751H22.7626L20.957 2.68225H21.5967Z" fill="#3F4B00"/>
<path d="M13.3691 10.8336L16.1802 8.04523V7.40992L13.3691 10.1945V10.8336Z" fill="#3F4B00"/>
<path d="M13.3691 12.1963L16.1802 9.40914V8.77416L13.3691 11.5596V12.1963Z" fill="#3F4B00"/>
<path d="M22.5188 2.68228V3.13147L24.7804 0.890777H24.138L22.3311 2.68228H22.5188Z" fill="#3F4B00"/>
<path d="M22.5186 4.35327L26.015 0.89076H25.5131L22.5186 3.85718V4.35327Z" fill="#3F4B00"/>
<path d="M13.3691 13.4191L16.1802 10.6338V10.139L13.3691 12.9217V13.4191Z" fill="#3F4B00"/>
<path d="M22.5186 4.35323L22.5205 4.49414L26.1562 0.890723H26.015L22.5186 4.35323Z" fill="#3F4B00"/>
<path d="M16.1797 10.776V10.6335L13.3687 13.4194V13.5605L16.1797 10.776Z" fill="#3F4B00"/>
<path d="M13.3726 14.6917L16.1794 11.9081V11.5002L13.3726 14.2867V14.6917Z" fill="#3F4B00"/>
<path d="M22.521 5.62708L25.3304 2.84127V2.6823H25.493L27.2124 0.977409V0.890802H26.8909L22.521 5.22029V5.62708Z" fill="#3F4B00"/>
<path d="M16.1799 12.1369V11.9081L13.373 14.6917V14.9233L16.1799 12.1369Z" fill="#3F4B00"/>
<path d="M22.521 5.62704V5.85522L25.3304 3.07537V2.84123L22.521 5.62704Z" fill="#3F4B00"/>
<path d="M25.4927 2.68225H25.7255L27.2123 1.20655V0.977134L25.4927 2.68225Z" fill="#3F4B00"/>
<path d="M13.3726 16.2876L16.1794 13.5018V12.8648L13.3726 15.6497V16.2876Z" fill="#3F4B00"/>
<path d="M27.1041 2.68225L27.2121 2.56984V1.93419L26.4585 2.68225H27.1041Z" fill="#3F4B00"/>
<path d="M22.521 7.22046L25.3304 4.43454V3.80013L22.521 6.58515V7.22046Z" fill="#3F4B00"/>
<path d="M13.3726 17.649L16.1794 14.8638V14.2282L13.3726 17.0131V17.649Z" fill="#3F4B00"/>
<path d="M22.521 8.58411L25.3304 5.79987V5.16254L22.521 7.94622V8.58411Z" fill="#3F4B00"/>
<path d="M16.1799 15.5912L13.373 18.3768V18.511L16.1843 15.7264L16.1799 15.5912Z" fill="#3F4B00"/>
<path d="M22.521 9.44482L25.3304 6.66182V6.5272L22.521 9.3102V9.44482Z" fill="#3F4B00"/>
<path d="M16.1848 16.2281V15.7267L13.3726 18.5106V19.0125L16.1848 16.2281Z" fill="#3F4B00"/>
<path d="M22.521 9.4449V9.94873L25.3304 7.16292V6.6619L22.521 9.4449Z" fill="#3F4B00"/>
<path d="M22.521 10.7178L25.3304 7.93477V7.89091L22.521 10.6755V10.7178Z" fill="#3F4B00"/>
<path d="M13.3726 19.7833L16.1848 16.9993V16.9559L13.3726 19.7405V19.7833Z" fill="#3F4B00"/>
<path d="M16.1848 17.5924V16.9996L13.3726 19.7832V20.3754L16.1848 17.5924Z" fill="#3F4B00"/>
<path d="M22.521 10.7178V11.3093L25.3345 8.52375L25.3304 7.93477L22.521 10.7178Z" fill="#3F4B00"/>
<path d="M22.5242 12.6746L25.3339 9.89122V9.25423L22.5229 12.0386L22.5242 12.6746Z" fill="#3F4B00"/>
<path d="M13.3726 21.7391L16.1848 18.9545V18.3188L13.3726 21.1019V21.7391Z" fill="#3F4B00"/>
<path d="M22.5244 14.0378L25.3341 11.2533V10.617L22.5244 13.4006V14.0378Z" fill="#3F4B00"/>
<path d="M13.3726 23.1012L16.1848 20.3172V19.6828L13.3726 22.4659V23.1012Z" fill="#3F4B00"/>
<path d="M13.3726 24.2377L16.1848 21.4552V21.0462L13.3726 23.832V24.2377Z" fill="#3F4B00"/>
<path d="M25.3338 12.3872V11.9794L22.5244 14.764V15.1719L25.3338 12.3872Z" fill="#3F4B00"/>
<path d="M16.1848 21.6831V21.4556L13.3726 24.2374V24.4656L16.1848 21.6831Z" fill="#3F4B00"/>
<path d="M25.3338 12.6178V12.3872L22.5244 15.1714V15.399L25.3338 12.6178Z" fill="#3F4B00"/>
<path d="M16.1849 22.7272V22.4091L13.3799 25.1853C13.3831 25.2911 13.3891 25.3909 13.3966 25.4886L16.1849 22.7272Z" fill="#3F4B00"/>
<path d="M25.3338 13.6596V13.3427L22.5244 16.1287V16.4445L25.3338 13.6596Z" fill="#3F4B00"/>
<path d="M16.1847 23.0455V22.7269L13.3965 25.4889C13.4057 25.5888 13.4126 25.687 13.4255 25.78L16.1847 23.0455Z" fill="#3F4B00"/>
<path d="M25.3338 13.9794V13.662L22.5244 16.4444V16.7643L25.3338 13.9794Z" fill="#3F4B00"/>
<path d="M13.6948 26.8739L16.1848 24.4098V23.7707L13.5381 26.3944C13.5824 26.5625 13.6325 26.7218 13.6948 26.8739Z" fill="#3F4B00"/>
<path d="M22.5244 18.1277L25.3341 15.3419V14.7087L22.5244 17.4886V18.1277Z" fill="#3F4B00"/>
<path d="M14.2141 27.7246L16.3231 25.6348C16.2544 25.4523 16.2209 25.2727 16.2001 25.1209L13.9424 27.3588C14.0221 27.4849 14.1105 27.6091 14.2141 27.7246Z" fill="#3F4B00"/>
<path d="M22.5244 19.49L25.3341 16.7053V16.0679L22.5244 18.854V19.49Z" fill="#3F4B00"/>
<path d="M25.3338 17.4785V17.4347L22.5244 20.218V20.2634L25.3338 17.4785Z" fill="#3F4B00"/>
<path d="M16.5923 26.1434C16.5831 26.135 16.5787 26.1249 16.5702 26.1158L14.5874 28.0799C14.5953 28.0874 14.6035 28.0951 14.6146 28.1023L16.5923 26.1434Z" fill="#3F4B00"/>
<path d="M25.3338 18.071V17.482L22.5244 20.2631V20.8528L25.3338 18.071Z" fill="#3F4B00"/>
<path d="M16.8704 26.4549C16.7624 26.3554 16.6673 26.2502 16.5921 26.1431L14.6147 28.1021C14.7215 28.1869 14.8437 28.2682 14.966 28.3438L16.8704 26.4549Z" fill="#3F4B00"/>
<path d="M25.3338 19.387V18.7962L22.5244 21.5798V22.17L25.3338 19.387Z" fill="#3F4B00"/>
<path d="M15.879 28.7561L17.7067 26.9452C17.5544 26.8915 17.4227 26.8278 17.2995 26.7581L15.4463 28.5921C15.5834 28.6515 15.7237 28.7066 15.879 28.7561Z" fill="#3F4B00"/>
<path d="M17.7394 26.9587C17.7296 26.9555 17.7179 26.9496 17.7066 26.9452L15.8789 28.7558C15.8899 28.7606 15.9003 28.7655 15.9126 28.7675L17.7394 26.9587Z" fill="#3F4B00"/>
<path d="M25.3338 19.4344V19.3867L22.5244 22.1707V22.2168L25.3338 19.4344Z" fill="#3F4B00"/>
<path d="M17.0198 29.0338L18.8882 27.186C18.6822 27.1685 18.498 27.1428 18.3203 27.1096L16.4868 28.928C16.6568 28.9691 16.8346 29.0025 17.0198 29.0338Z" fill="#3F4B00"/>
<path d="M22.5244 23.5807L25.336 20.7954V20.161L22.5244 22.945V23.5807Z" fill="#3F4B00"/>
<path d="M18.2616 29.1674L20.3201 27.1258C20.1085 27.1599 19.8709 27.1821 19.6141 27.19L17.6689 29.1191C17.8553 29.1411 18.0559 29.1564 18.2616 29.1674Z" fill="#3F4B00"/>
<path d="M22.5263 24.9196L22.5244 24.9453L25.3357 22.1594V21.5257L22.5244 24.3062L22.5263 24.9196Z" fill="#3F4B00"/>
<path d="M19.2848 29.2021L25.336 23.2051V22.8878L22.2737 25.9203C22.112 26.2204 21.8504 26.5234 21.4262 26.7612L18.9658 29.1984C19.0719 29.1997 19.1768 29.1997 19.2848 29.2021Z" fill="#3F4B00"/>
<path d="M25.3359 23.2051L19.2847 29.2021H19.3558C19.4419 29.2021 19.5229 29.1997 19.6076 29.1997L25.3359 23.5243V23.2051Z" fill="#3F4B00"/>
<path d="M20.6146 29.1589L25.3357 24.4811V24.2496L20.3647 29.1743C20.4491 29.1671 20.5306 29.1646 20.6146 29.1589Z" fill="#3F4B00"/>
<path d="M25.3359 24.8868V24.8745V24.4809L20.6147 29.1589C20.7673 29.1493 20.9211 29.1358 21.0655 29.118L25.3359 24.8868Z" fill="#3F4B00"/>
<path d="M22.793 28.7715L25.1646 26.4147C25.2306 26.175 25.2701 25.917 25.2985 25.6486L21.9263 28.9906C22.2406 28.9298 22.529 28.8584 22.793 28.7715Z" fill="#3F4B00"/>
<path d="M109.225 30.0885C104.495 30.0885 102.479 28.6469 102.479 25.2683V5.27721C102.479 1.89851 104.495 0.459496 109.225 0.459496C113.951 0.459496 115.969 1.89851 115.969 5.27721V25.2683C115.969 28.6469 113.951 30.0885 109.225 30.0885ZM117.567 26.5148V6.52607C117.567 5.02154 117.183 3.86816 116.382 3.03809L115.406 2.09921C114.348 0.73581 112.34 0.107679 109.225 0.107679C104.283 0.107679 102.125 1.69163 102.125 5.27721V25.2683C102.125 25.4261 102.133 25.5753 102.14 25.724C102.143 25.77 102.146 25.8151 102.147 25.8573C102.159 25.9822 102.17 26.1068 102.184 26.228C102.192 26.2971 102.204 26.3612 102.211 26.4247C102.222 26.4799 102.231 26.5356 102.243 26.5894C102.394 27.39 102.689 28.0641 103.16 28.606L103.333 28.7765C103.378 28.82 103.423 28.8629 103.47 28.9057L105.004 30.3982C106.156 31.2744 107.948 31.6848 110.465 31.6848C115.407 31.6848 117.567 30.102 117.567 26.5148Z" fill="#3F4B00"/>
<path d="M107.884 26.5148V6.52563C107.894 6.25111 108.045 5.04432 110.465 5.04432C111.022 5.04432 111.456 5.11096 111.799 5.21013C111.806 5.24368 111.806 5.27307 111.806 5.29439V25.2682C111.796 25.5405 111.645 26.7481 109.225 26.7481C108.667 26.7481 108.233 26.6802 107.888 26.5771C107.887 26.554 107.884 26.5321 107.884 26.5148ZM106.291 25.2682V25.2776V25.2842C106.308 25.7092 106.572 27.0989 109.225 27.0989C111.881 27.0989 112.144 25.7092 112.159 25.2842V25.2776V25.2682L112.162 5.27778V5.26926V5.26432C112.144 4.83869 111.881 3.44836 109.225 3.44836C106.572 3.44836 106.308 4.83869 106.291 5.26432V5.26926V5.27778V25.2682Z" fill="#3F4B00"/>
<path d="M103.306 3.25818L104.985 1.59536C104.1 2.01594 103.586 2.59404 103.306 3.25818Z" fill="#3F4B00"/>
<path d="M104.985 1.59529L103.306 3.25778C103.242 3.41125 103.191 3.56831 103.149 3.72571L105.514 1.38304C105.322 1.44721 105.148 1.51766 104.985 1.59529Z" fill="#3F4B00"/>
<path d="M107.277 0.998727C107.005 1.03003 106.75 1.06985 106.51 1.11675L103.003 4.59328C102.985 4.8006 102.98 5.0068 102.98 5.2158V5.25439L107.277 0.998727Z" fill="#3F4B00"/>
<path d="M108.754 0.894145C108.522 0.903232 108.296 0.911422 108.082 0.924211L102.98 5.97977V6.61743L108.754 0.894145Z" fill="#3F4B00"/>
<path d="M107.123 3.29541L109.548 0.894182C109.528 0.892387 109.508 0.892387 109.491 0.892387L107.005 3.35364C107.043 3.33457 107.083 3.31617 107.123 3.29541Z" fill="#3F4B00"/>
<path d="M102.98 7.34538V7.3999L105.975 4.4309C105.993 4.39612 106.011 4.35887 106.029 4.32264L102.98 7.34538Z" fill="#3F4B00"/>
<path d="M109.548 0.894179L107.123 3.29541C107.368 3.17683 107.658 3.07665 108.002 3.00429L110.114 0.910109C109.931 0.903266 109.744 0.895413 109.548 0.894179Z" fill="#3F4B00"/>
<path d="M105.791 5.19587V5.18117C105.797 5.05687 105.83 4.76451 105.975 4.43121L102.98 7.40077V7.9801L105.791 5.19587Z" fill="#3F4B00"/>
<path d="M108.84 2.90234C108.964 2.89449 109.092 2.88888 109.225 2.88888C109.305 2.88888 109.381 2.89191 109.454 2.89449L111.348 1.01908C111.176 0.994731 110.991 0.974986 110.803 0.957485L108.84 2.90234Z" fill="#3F4B00"/>
<path d="M105.791 6.52602V5.92347L102.98 8.70849V9.3125L105.791 6.52602Z" fill="#3F4B00"/>
<path d="M109.486 2.89478L111.377 1.0225C111.368 1.0225 111.359 1.0225 111.348 1.0188L109.454 2.89478H109.486Z" fill="#3F4B00"/>
<path d="M105.791 6.5583V6.5261L102.98 9.31191V9.34534L105.791 6.5583Z" fill="#3F4B00"/>
<path d="M102.98 10.7106L105.791 7.92095V7.28497L102.98 10.0727V10.7106Z" fill="#3F4B00"/>
<path d="M112.003 1.12955L110.161 2.95706C110.355 2.98398 110.531 3.0219 110.694 3.06543L112.522 1.2525C112.364 1.20718 112.186 1.1687 112.003 1.12955Z" fill="#3F4B00"/>
<path d="M102.98 12.072L105.791 9.28554V8.64934L102.98 11.4355V12.072Z" fill="#3F4B00"/>
<path d="M113.077 1.42968L111.238 3.25315C111.39 3.3217 111.527 3.39742 111.653 3.47876L113.524 1.62309C113.387 1.55454 113.236 1.49037 113.077 1.42968Z" fill="#3F4B00"/>
<path d="M112.055 3.81026C112.108 3.86781 112.16 3.92816 112.207 3.98706L114.187 2.02683C114.125 1.98028 114.058 1.93204 113.992 1.88918L112.055 3.81026Z" fill="#3F4B00"/>
<path d="M105.791 10.3447V10.0127L102.98 12.7981V13.1312L105.791 10.3447Z" fill="#3F4B00"/>
<path d="M112.337 4.16797L114.355 2.16612C114.301 2.11788 114.244 2.07132 114.187 2.02712L112.207 3.98701C112.254 4.04748 112.294 4.10694 112.337 4.16797Z" fill="#3F4B00"/>
<path d="M105.791 10.6489V10.3443L102.98 13.1314V13.4344L105.791 10.6489Z" fill="#3F4B00"/>
<path d="M105.791 11.376L102.98 14.1616V14.4019L105.791 11.6182V11.376Z" fill="#3F4B00"/>
<path d="M112.617 4.85559L114.817 2.6738C114.787 2.6269 114.752 2.58337 114.715 2.53581L112.568 4.66532C112.586 4.7332 112.604 4.79871 112.617 4.85559Z" fill="#3F4B00"/>
<path d="M114.974 2.9135C114.927 2.8334 114.877 2.75139 114.817 2.67376L112.617 4.85555C112.647 4.99803 112.658 5.1147 112.661 5.18134V5.20703L114.974 2.9135Z" fill="#3F4B00"/>
<path d="M105.791 12.0138V11.6182L102.98 14.4022V14.8007L105.791 12.0138Z" fill="#3F4B00"/>
<path d="M102.98 16.1633L105.791 13.3763V12.74L102.98 15.5273V16.1633Z" fill="#3F4B00"/>
<path d="M115.205 3.41122L112.661 5.93418V6.56982L115.349 3.90675C115.311 3.73735 115.266 3.57277 115.205 3.41122Z" fill="#3F4B00"/>
<path d="M102.98 17.527L105.791 14.7398V14.1026L102.98 16.8885V17.527Z" fill="#3F4B00"/>
<path d="M115.445 4.53883L112.661 7.29839V7.93347L115.474 5.15103C115.469 4.94562 115.46 4.73998 115.445 4.53883Z" fill="#3F4B00"/>
<path d="M105.791 16.07V15.4688L102.98 18.2546V18.8596L105.791 16.07Z" fill="#3F4B00"/>
<path d="M112.661 8.66175V9.26733L115.474 6.47962V5.87595L112.661 8.66175Z" fill="#3F4B00"/>
<path d="M115.474 6.48001L112.661 9.26773V9.29712L115.474 6.51255V6.48001Z" fill="#3F4B00"/>
<path d="M105.791 16.1054V16.0701L102.98 18.859V18.8898L105.791 16.1054Z" fill="#3F4B00"/>
<path d="M112.661 10.0255V10.5435L115.474 7.75451V7.23902L112.661 10.0255Z" fill="#3F4B00"/>
<path d="M105.791 17.3463V16.8308L102.98 19.6161V20.13L105.791 17.3463Z" fill="#3F4B00"/>
<path d="M112.661 10.662L115.474 7.87618V7.75379L112.661 10.5434V10.662Z" fill="#3F4B00"/>
<path d="M105.791 17.4682V17.3464L102.98 20.132V20.2528L105.791 17.4682Z" fill="#3F4B00"/>
<path d="M115.474 8.60236L112.661 11.3873V12.0239L115.474 9.23958V8.60236Z" fill="#3F4B00"/>
<path d="M105.791 18.1936L102.98 20.982V21.6157L105.791 18.8327V18.1936Z" fill="#3F4B00"/>
<path d="M105.791 19.5589L102.98 22.3426V22.9816L105.791 20.1939V19.5589Z" fill="#3F4B00"/>
<path d="M112.661 13.3878L115.474 10.6048V9.96625L112.661 12.7543V13.3878Z" fill="#3F4B00"/>
<path d="M105.791 21.1653V20.9207L102.98 23.708V23.9509L105.791 21.1653Z" fill="#3F4B00"/>
<path d="M115.474 11.5719V11.3315L112.661 14.1193V14.3584L115.474 11.5719Z" fill="#3F4B00"/>
<path d="M115.474 11.9669V11.5719L112.661 14.3577V14.7552L115.474 11.9669Z" fill="#3F4B00"/>
<path d="M105.791 21.1654L102.98 23.951V24.3441L105.791 21.561V21.1654Z" fill="#3F4B00"/>
<path d="M102.98 25.2229L105.791 22.4373V22.2871L102.98 25.0736V25.207V25.2229Z" fill="#3F4B00"/>
<path d="M115.474 12.8477V12.695L112.661 15.4815V15.6326L115.474 12.8477Z" fill="#3F4B00"/>
<path d="M115.474 13.3305V12.8479L112.661 15.6328V16.1161L115.474 13.3305Z" fill="#3F4B00"/>
<path d="M105.791 22.4374L102.98 25.2232C102.98 25.3829 102.985 25.5391 102.995 25.6924L105.791 22.9226V22.4374Z" fill="#3F4B00"/>
<path d="M112.661 17.4838L115.474 14.6954V14.0582L112.661 16.8434V17.4838Z" fill="#3F4B00"/>
<path d="M105.791 23.6498L103.068 26.3452C103.1 26.5214 103.141 26.6914 103.192 26.8604L105.791 24.2865V23.6498Z" fill="#3F4B00"/>
<path d="M103.65 27.7722L105.844 25.5973C105.806 25.4389 105.796 25.3115 105.791 25.2408V25.0113L103.404 27.3766C103.477 27.5106 103.556 27.6461 103.65 27.7722Z" fill="#3F4B00"/>
<path d="M112.661 18.8456L115.474 16.0572V15.4205L112.661 18.2065V18.8456Z" fill="#3F4B00"/>
<path d="M115.474 17.3007V16.7853L112.661 19.5717V20.0872L115.474 17.3007Z" fill="#3F4B00"/>
<path d="M106.251 26.4404C106.168 26.3341 106.1 26.2295 106.043 26.1256L103.992 28.159C104.076 28.2435 104.17 28.3225 104.273 28.3994L106.251 26.4404Z" fill="#3F4B00"/>
<path d="M115.474 17.4197V17.3004L112.661 20.0869V20.2086L115.474 17.4197Z" fill="#3F4B00"/>
<path d="M106.25 26.4404L104.272 28.3994C104.295 28.416 104.318 28.4351 104.34 28.4504L106.301 26.5046C106.285 26.4833 106.266 26.463 106.25 26.4404Z" fill="#3F4B00"/>
<path d="M106.938 27.0278C106.847 26.9741 106.758 26.9189 106.68 26.8605L104.793 28.7295C104.884 28.7809 104.978 28.8266 105.08 28.8707L106.938 27.0278Z" fill="#3F4B00"/>
<path d="M115.474 18.5743V18.1487L112.661 20.9351V21.3601L115.474 18.5743Z" fill="#3F4B00"/>
<path d="M106.939 27.0278L105.08 28.8707C105.129 28.8938 105.179 28.9142 105.228 28.933L107.079 27.1001C107.03 27.078 106.984 27.0529 106.939 27.0278Z" fill="#3F4B00"/>
<path d="M115.474 18.7855V18.5764L112.661 21.3629V21.572L115.474 18.7855Z" fill="#3F4B00"/>
<path d="M107.598 27.3136L105.772 29.1224C105.933 29.1692 106.102 29.2152 106.28 29.2544L108.116 27.4391C107.929 27.4066 107.758 27.363 107.598 27.3136Z" fill="#3F4B00"/>
<path d="M112.661 22.9369L115.474 20.1473V19.5104L112.661 22.2984V22.9369Z" fill="#3F4B00"/>
<path d="M112.661 24.2997L115.474 21.5107V20.8728L112.661 23.6618V24.2997Z" fill="#3F4B00"/>
<path d="M109.224 27.5327C109.067 27.5327 108.916 27.5255 108.77 27.5167L106.896 29.3699C107.079 29.4025 107.266 29.4268 107.464 29.4453L109.397 27.5255C109.343 27.5307 109.287 27.5327 109.224 27.5327Z" fill="#3F4B00"/>
<path d="M110.392 27.4291C110.332 27.4414 110.268 27.4498 110.204 27.4599L108.144 29.5027C108.193 29.5051 108.241 29.5079 108.292 29.5079L110.392 27.4291Z" fill="#3F4B00"/>
<path d="M115.474 22.3955V22.239L112.661 25.0254V25.1797L115.474 22.3955Z" fill="#3F4B00"/>
<path d="M115.474 22.8759V22.3952L112.661 25.1801V25.2399C112.657 25.3335 112.638 25.525 112.568 25.7557L115.474 22.8759Z" fill="#3F4B00"/>
<path d="M110.392 27.4291L108.292 29.5079C108.442 29.5168 108.6 29.5226 108.761 29.5258L111.067 27.2376C110.868 27.3149 110.643 27.3765 110.392 27.4291Z" fill="#3F4B00"/>
<path d="M115.474 23.6024L109.491 29.5303C109.719 29.5256 109.942 29.5205 110.153 29.509L115.474 24.2373V23.6024Z" fill="#3F4B00"/>
<path d="M115.474 25.207V24.9641L110.947 29.4498C111.209 29.4254 111.456 29.3918 111.69 29.349L115.46 25.61C115.469 25.4774 115.474 25.3402 115.474 25.207Z" fill="#3F4B00"/>
<path d="M115.367 26.4317L112.642 29.1359C113.062 29.011 113.423 28.8617 113.732 28.6905L115.037 27.3982C115.192 27.0965 115.3 26.7706 115.367 26.4317Z" fill="#3F4B00"/>
<path d="M3.37544 17.8578H1.25871V15.881H3.28226C4.29086 15.881 4.78044 16.2412 4.78044 16.8591C4.78044 17.5186 4.24942 17.8578 3.37544 17.8578ZM1.25871 12.8939H3.09645C3.9162 12.8939 4.37238 13.2344 4.37238 13.8216C4.37238 14.4913 3.82301 14.8094 3.0027 14.8094H1.25871V12.8939ZM4.61241 15.2322C5.15385 14.954 5.65192 14.5023 5.65192 13.6149C5.65192 12.4824 4.72677 11.7734 3.26233 11.7734H0V18.9789H3.36559C4.98639 18.9789 6.05761 18.2897 6.05761 16.9936C6.05761 16.0053 5.46692 15.5207 4.61241 15.2322Z" fill="#3F4B00"/>
<path d="M34.43 16.1681L35.6758 13.2842L36.9324 16.1681H34.43ZM35.1042 11.7703L31.9033 19.0293H33.2132L33.9634 17.2904H37.3999L38.1381 19.0293H39.4882L36.2893 11.7703H35.1042Z" fill="#3F4B00"/>
<path d="M72.0431 11.7735H70.4756L67.0152 15.3969V11.7735H65.7368V18.9786H67.0152V16.8897L68.1474 15.7368L70.6308 18.9786H72.1776L69.0201 14.8726L72.0431 11.7735Z" fill="#3F4B00"/>
<path d="M91.142 15.9102H94.7879V14.7781H91.142V12.9053H95.256V11.7732H89.8633V18.9792H95.3079V17.8491H91.142V15.9102Z" fill="#3F4B00"/>
<path d="M123.722 15.3443V12.9233H125.582C126.526 12.9233 127.091 13.3371 127.091 14.1302C127.091 14.8732 126.508 15.3443 125.593 15.3443H123.722ZM128.387 14.0583C128.387 12.647 127.358 11.7731 125.687 11.7731H122.445V18.9786H123.722V16.4672H125.322L127.109 18.9786H128.616L126.652 16.2525C127.671 15.975 128.387 15.2519 128.387 14.0583Z" fill="#3F4B00"/>
<path d="M160.536 11.7735L158.479 14.9662L156.444 11.7735H154.935L157.823 16.1399V18.9786H159.112V16.1082L162 11.7735H160.536Z" fill="#3F4B00"/>
</g>
<path d="M18.2771 26.2011V4.8369H20.1598V3.96117L21.0228 4.8369H21.6675L21.6728 24.2102V24.9819C21.6612 25.2549 21.6859 26.4145 19.3562 26.4145C18.9197 26.4145 18.569 26.3735 18.2803 26.3009C18.2771 26.2633 18.2771 26.2287 18.2771 26.2011ZM10.9882 0.459508H18.5623V3.24004H17.0339H16.6813V3.58905V24.967C16.7221 26.1285 17.6723 26.7682 19.3562 26.7682C21.0641 26.7682 21.9865 26.1631 22.0241 25.0177V24.9945L22.0254 24.9901V24.9819L22.0196 3.58905V3.24004H21.6662H20.1396V0.459508H27.7131V3.24004H26.1839H25.8285V3.58905L25.8352 24.9369C25.8352 28.3168 23.8956 29.7597 19.3562 29.7597C14.8129 29.7597 12.8716 28.3168 12.8716 24.9369V3.58905V3.24004H12.5178H10.9882V0.459508ZM27.4259 26.1823L27.4227 4.8369H29.3064V1.35374L28.0675 0.126202V0.107694H19.7864V0.126202V0.984428L18.9197 0.126202V0.107694H10.6357V0.126202V3.58905V3.60622L11.8734 4.8369H12.5178L12.5196 24.9569V24.9901C12.5196 25.1159 12.5247 25.237 12.5298 25.3594C12.5338 25.4152 12.5363 25.4733 12.5389 25.5278C12.5456 25.6073 12.5538 25.6812 12.5603 25.7557C12.5728 25.8758 12.5864 25.9939 12.6062 26.11C12.6094 26.1432 12.6166 26.1797 12.6217 26.2158C12.6394 26.304 12.6549 26.3882 12.6722 26.4747C12.6722 26.4758 12.6759 26.4787 12.6759 26.4787C12.8172 27.131 13.0667 27.6918 13.4259 28.1606L13.4976 28.2395C13.6439 28.4157 13.8036 28.5803 13.9815 28.7315L15.0741 29.8439C16.1674 30.8752 17.9736 31.3552 20.5951 31.3552C25.3519 31.3552 27.4259 29.7718 27.4259 26.1823Z" fill="#3F4B00"/>
<path d="M11.4893 1.78833L12.3961 0.891066H11.7545L11.4893 1.15302V1.78833Z" fill="#3F4B00"/>
<path d="M13.1286 0.890751L11.4893 2.51767V2.68225H11.9663L13.7705 0.890751H13.1286Z" fill="#3F4B00"/>
<path d="M14.5063 0.890751L12.6982 2.68225H13.3404L15.1489 0.890751H14.5063Z" fill="#3F4B00"/>
<path d="M13.3691 3.87L16.3773 0.890781H15.8817L13.3691 3.37896V3.87Z" fill="#3F4B00"/>
<path d="M16.5241 0.890853H16.3772L13.3691 3.87007V4.01636L16.5241 0.890853Z" fill="#3F4B00"/>
<path d="M13.3691 5.37854L17.8995 0.891096H17.257L13.3691 4.74065V5.37854Z" fill="#3F4B00"/>
<path d="M13.3691 6.74133L16.1802 3.95833V3.31921L13.3691 6.10535V6.74133Z" fill="#3F4B00"/>
<path d="M17.4697 2.68225L18.0648 2.09193V1.45538L16.8271 2.68225H17.4697Z" fill="#3F4B00"/>
<path d="M16.1802 4.68221L13.3691 7.46746V7.6897L16.1802 4.90412V4.68221Z" fill="#3F4B00"/>
<path d="M16.1802 5.32071V4.90416L13.3691 7.68963V8.10315L16.1802 5.32071Z" fill="#3F4B00"/>
<path d="M20.6396 1.76428L21.5193 0.890465H21.3855L20.6396 1.63224V1.76428Z" fill="#3F4B00"/>
<path d="M13.3691 8.96484L16.1802 6.17646V6.04845L13.3691 8.83157V8.96484Z" fill="#3F4B00"/>
<path d="M16.1802 6.68428V6.17664L13.3691 8.96503V9.46729L16.1802 6.68428Z" fill="#3F4B00"/>
<path d="M20.6396 1.76559V2.26953L22.0286 0.89054H21.5193L20.6396 1.76559Z" fill="#3F4B00"/>
<path d="M21.5967 2.68225L23.4055 0.890751H22.7626L20.957 2.68225H21.5967Z" fill="#3F4B00"/>
<path d="M13.3691 10.8335L16.1802 8.04511V7.4098L13.3691 10.1944V10.8335Z" fill="#3F4B00"/>
<path d="M13.3691 12.1963L16.1802 9.40914V8.77416L13.3691 11.5596V12.1963Z" fill="#3F4B00"/>
<path d="M22.5188 2.68228V3.13147L24.7804 0.890777H24.138L22.3311 2.68228H22.5188Z" fill="#3F4B00"/>
<path d="M22.5186 4.35327L26.015 0.89076H25.5131L22.5186 3.85718V4.35327Z" fill="#3F4B00"/>
<path d="M13.3691 13.4192L16.1802 10.6339V10.1391L13.3691 12.9219V13.4192Z" fill="#3F4B00"/>
<path d="M22.5186 4.35323L22.5205 4.49414L26.1562 0.890723H26.015L22.5186 4.35323Z" fill="#3F4B00"/>
<path d="M16.1802 10.776V10.6335L13.3691 13.4194V13.5605L16.1802 10.776Z" fill="#3F4B00"/>
<path d="M13.3726 14.6917L16.1794 11.9081V11.5002L13.3726 14.2867V14.6917Z" fill="#3F4B00"/>
<path d="M22.521 5.62708L25.3304 2.84127V2.6823H25.493L27.2124 0.977409V0.890802H26.8909L22.521 5.22029V5.62708Z" fill="#3F4B00"/>
<path d="M16.1799 12.1369V11.9081L13.373 14.6917V14.9233L16.1799 12.1369Z" fill="#3F4B00"/>
<path d="M22.521 5.62704V5.85522L25.3304 3.07537V2.84123L22.521 5.62704Z" fill="#3F4B00"/>
<path d="M13.3726 16.2876L16.1794 13.5018V12.8648L13.3726 15.6497V16.2876Z" fill="#3F4B00"/>
<path d="M22.521 7.22046L25.3304 4.43454V3.80013L22.521 6.58515V7.22046Z" fill="#3F4B00"/>
<path d="M13.3726 17.649L16.1794 14.8638V14.2282L13.3726 17.0131V17.649Z" fill="#3F4B00"/>
<path d="M22.521 8.58423L25.3304 5.79999V5.16266L22.521 7.94634V8.58423Z" fill="#3F4B00"/>
<path d="M16.1799 15.5912L13.373 18.3768V18.511L16.1843 15.7264L16.1799 15.5912Z" fill="#3F4B00"/>
<path d="M22.521 9.44482L25.3304 6.66182V6.5272L22.521 9.3102V9.44482Z" fill="#3F4B00"/>
<path d="M16.1848 16.2281V15.7267L13.3726 18.5106V19.0125L16.1848 16.2281Z" fill="#3F4B00"/>
<path d="M22.521 9.4449V9.94873L25.3304 7.16292V6.6619L22.521 9.4449Z" fill="#3F4B00"/>
<path d="M22.521 10.7178L25.3304 7.93477V7.89091L22.521 10.6755V10.7178Z" fill="#3F4B00"/>
<path d="M13.3726 19.7832L16.1848 16.9992V16.9558L13.3726 19.7403V19.7832Z" fill="#3F4B00"/>
<path d="M16.1848 17.5924V16.9996L13.3726 19.7832V20.3754L16.1848 17.5924Z" fill="#3F4B00"/>
<path d="M22.521 10.7178V11.3093L25.3345 8.52375L25.3304 7.93477L22.521 10.7178Z" fill="#3F4B00"/>
<path d="M22.5242 12.6746L25.3339 9.89122V9.25423L22.5229 12.0386L22.5242 12.6746Z" fill="#3F4B00"/>
<path d="M13.3726 21.7391L16.1848 18.9545V18.3188L13.3726 21.1019V21.7391Z" fill="#3F4B00"/>
<path d="M22.5244 14.0378L25.3341 11.2533V10.617L22.5244 13.4006V14.0378Z" fill="#3F4B00"/>
<path d="M13.3726 23.1013L16.1848 20.3173V19.6829L13.3726 22.466V23.1013Z" fill="#3F4B00"/>
<path d="M13.3726 24.2375L16.1848 21.4551V21.0461L13.3726 23.8319V24.2375Z" fill="#3F4B00"/>
<path d="M25.3338 12.3872V11.9794L22.5244 14.764V15.1719L25.3338 12.3872Z" fill="#3F4B00"/>
<path d="M16.1848 21.6831V21.4556L13.3726 24.2374V24.4656L16.1848 21.6831Z" fill="#3F4B00"/>
<path d="M25.3338 12.618V12.3873L22.5244 15.1715V15.3992L25.3338 12.618Z" fill="#3F4B00"/>
<path d="M16.1849 22.7273V22.4093L13.3799 25.1854C13.3831 25.2912 13.3891 25.3911 13.3966 25.4888L16.1849 22.7273Z" fill="#3F4B00"/>
<path d="M25.3338 13.6594V13.3426L22.5244 16.1285V16.4443L25.3338 13.6594Z" fill="#3F4B00"/>
<path d="M16.1847 23.0455V22.7269L13.3965 25.4889C13.4057 25.5888 13.4126 25.687 13.4255 25.78L16.1847 23.0455Z" fill="#3F4B00"/>
<path d="M25.3338 13.9793V13.6619L22.5244 16.4443V16.7642L25.3338 13.9793Z" fill="#3F4B00"/>
<path d="M13.6948 26.8739L16.1848 24.4098V23.7707L13.5381 26.3944C13.5824 26.5625 13.6325 26.7218 13.6948 26.8739Z" fill="#3F4B00"/>
<path d="M22.5244 18.1277L25.3341 15.3419V14.7087L22.5244 17.4886V18.1277Z" fill="#3F4B00"/>
<path d="M14.2141 27.7246L16.3231 25.6348C16.2544 25.4523 16.2209 25.2727 16.2001 25.1209L13.9424 27.3588C14.0221 27.4849 14.1105 27.6091 14.2141 27.7246Z" fill="#3F4B00"/>
<path d="M22.5244 19.49L25.3341 16.7053V16.0679L22.5244 18.854V19.49Z" fill="#3F4B00"/>
<path d="M25.3338 17.4785V17.4347L22.5244 20.218V20.2634L25.3338 17.4785Z" fill="#3F4B00"/>
<path d="M16.5923 26.1434C16.5831 26.135 16.5787 26.1249 16.5702 26.1158L14.5874 28.0799C14.5953 28.0874 14.6035 28.0951 14.6146 28.1023L16.5923 26.1434Z" fill="#3F4B00"/>
<path d="M25.3338 18.071V17.482L22.5244 20.2631V20.8528L25.3338 18.071Z" fill="#3F4B00"/>
<path d="M16.8704 26.4549C16.7624 26.3554 16.6673 26.2502 16.5921 26.1431L14.6147 28.1021C14.7215 28.1869 14.8437 28.2682 14.966 28.3438L16.8704 26.4549Z" fill="#3F4B00"/>
<path d="M25.3338 19.387V18.7962L22.5244 21.5798V22.17L25.3338 19.387Z" fill="#3F4B00"/>
<path d="M15.879 28.7561L17.7067 26.9452C17.5544 26.8915 17.4227 26.8278 17.2995 26.7581L15.4463 28.5921C15.5834 28.6515 15.7237 28.7066 15.879 28.7561Z" fill="#3F4B00"/>
<path d="M17.7394 26.9587C17.7296 26.9555 17.7179 26.9496 17.7066 26.9452L15.8789 28.7558C15.8899 28.7606 15.9003 28.7655 15.9126 28.7675L17.7394 26.9587Z" fill="#3F4B00"/>
<path d="M25.3338 19.4344V19.3867L22.5244 22.1707V22.2168L25.3338 19.4344Z" fill="#3F4B00"/>
<path d="M17.0198 29.0337L18.8882 27.1859C18.6822 27.1684 18.498 27.1427 18.3203 27.1095L16.4868 28.9279C16.6568 28.969 16.8346 29.0024 17.0198 29.0337Z" fill="#3F4B00"/>
<path d="M22.5244 23.5807L25.336 20.7954V20.161L22.5244 22.945V23.5807Z" fill="#3F4B00"/>
<path d="M18.2616 29.1675L20.3201 27.1259C20.1085 27.16 19.8709 27.1822 19.6141 27.1901L17.6689 29.1192C17.8553 29.1412 18.0559 29.1565 18.2616 29.1675Z" fill="#3F4B00"/>
<path d="M22.5263 24.9196L22.5244 24.9453L25.3357 22.1594V21.5257L22.5244 24.3062L22.5263 24.9196Z" fill="#3F4B00"/>
<path d="M19.2848 29.2021L25.336 23.2051V22.8878L22.2737 25.9203C22.112 26.2204 21.8504 26.5234 21.4262 26.7612L18.9658 29.1984C19.0719 29.1997 19.1768 29.1997 19.2848 29.2021Z" fill="#3F4B00"/>
<path d="M25.3359 23.2051L19.2847 29.2021H19.3558C19.4419 29.2021 19.5229 29.1997 19.6076 29.1997L25.3359 23.5243V23.2051Z" fill="#3F4B00"/>
<path d="M20.6151 29.1589L25.3362 24.4811V24.2496L20.3652 29.1743C20.4496 29.1671 20.5311 29.1646 20.6151 29.1589Z" fill="#3F4B00"/>
<path d="M25.3359 24.8868V24.8745V24.4809L20.6147 29.1589C20.7673 29.1493 20.9211 29.1358 21.0655 29.118L25.3359 24.8868Z" fill="#3F4B00"/>
<path d="M22.7925 28.7716L25.1641 26.4148C25.2301 26.1751 25.2696 25.9172 25.2981 25.6487L21.9258 28.9907C22.2401 28.9299 22.5285 28.8586 22.7925 28.7716Z" fill="#3F4B00"/>
</g>
<defs>
<clipPath id="clip0_2023_45">
<rect width="162" height="32" fill="white"/>
</clipPath>
</defs>
</svg>
